<svg width="11" height="11" viewBox="0 0 11 11" fill="none" xmlns="http://www.w3.org/2000/svg">
<path d="M6.39114 5.50997L10.7914 1.09978C10.8551 1.04241 10.9064 0.972633 10.9422 0.894709C10.9781 0.816786 10.9977 0.732356 10.9998 0.646585C11.002 0.560814 10.9866 0.475505 10.9547 0.395877C10.9229 0.316249 10.8751 0.243976 10.8144 0.18348C10.7537 0.122984 10.6813 0.0755358 10.6017 0.044039C10.5221 0.0125421 10.4369 -0.00234139 10.3513 0.000298707C10.2657 0.0029388 10.1816 0.0230469 10.1041 0.0593933C10.0265 0.0957398 9.95719 0.14756 9.90031 0.211684L5.5 4.62188L1.09969 0.211684C1.04281 0.14756 0.973484 0.0957398 0.895939 0.0593933C0.818394 0.0230469 0.734266 0.0029388 0.6487 0.000298707C0.563135 -0.00234139 0.477932 0.0125421 0.398303 0.044039C0.318674 0.0755358 0.246294 0.122984 0.18559 0.18348C0.124887 0.243976 0.0771355 0.316249 0.0452585 0.395877C0.0133816 0.475505 -0.00195094 0.560814 0.000198411 0.646585C0.00234776 0.732356 0.021934 0.816786 0.0577591 0.894709C0.0935842 0.972633 0.144895 1.04241 0.208552 1.09978L4.60886 5.50997L0.208552 9.92016C0.0926015 10.0398 0.027739 10.2 0.027739 10.3667C0.027739 10.5335 0.0926015 10.6937 0.208552 10.8133C0.328235 10.9312 0.488818 10.9981 0.656639 11C0.823151 10.999 0.982467 10.9318 1.09969 10.8133L5.5 6.40311L9.90031 10.8133C10.0175 10.9318 10.1768 10.999 10.3434 11C10.5112 10.9981 10.6718 10.9312 10.7914 10.8133C10.9074 10.6937 10.9723 10.5335 10.9723 10.3667C10.9723 10.2 10.9074 10.0398 10.7914 9.92016L6.39114 5.50997Z" fill="#009CDE"/>
</svg>
