<svg width="14" height="15" viewBox="0 0 14 15" fill="none" xmlns="http://www.w3.org/2000/svg">
<path d="M13.7558 2.99676V4.02885C13.7104 4.02439 13.6647 4.02439 13.6194 4.02885H0.115723V2.99676C0.115723 2.56265 0.288171 2.14632 0.595132 1.83936C0.902093 1.5324 1.31842 1.35995 1.75253 1.35995H3.24384V0.941657C3.26101 0.686254 3.37458 0.446915 3.56156 0.272087C3.74853 0.0972577 3.99495 0 4.25093 0C4.50691 0 4.75333 0.0972577 4.9403 0.272087C5.12728 0.446915 5.24085 0.686254 5.25802 0.941657V1.35995H8.61347V0.941657C8.63064 0.686254 8.74421 0.446915 8.93119 0.272087C9.11816 0.0972577 9.36458 0 9.62056 0C9.87654 0 10.123 0.0972577 10.3099 0.272087C10.4969 0.446915 10.6105 0.686254 10.6277 0.941657V1.35995H12.119C12.5531 1.35995 12.9694 1.5324 13.2764 1.83936C13.5833 2.14632 13.7558 2.56265 13.7558 2.99676ZM13.6194 5.37922C13.6647 5.38369 13.7104 5.38369 13.7558 5.37922V13.3632C13.7558 13.7973 13.5833 14.2136 13.2764 14.5206C12.9694 14.8276 12.5531 15 12.119 15H1.75253C1.31842 15 0.902093 14.8276 0.595132 14.5206C0.288171 14.2136 0.115723 13.7973 0.115723 13.3632V5.37922H13.6194ZM3.7076 11.4718C3.7076 11.282 3.65134 11.0966 3.54592 10.9388C3.44051 10.781 3.29068 10.6581 3.11538 10.5855C2.94008 10.5128 2.74719 10.4938 2.56109 10.5309C2.375 10.5679 2.20406 10.6592 2.06989 10.7934C1.93572 10.9276 1.84435 11.0985 1.80734 11.2846C1.77032 11.4707 1.78932 11.6636 1.86193 11.8389C1.93454 12.0142 2.0575 12.164 2.21527 12.2694C2.37303 12.3749 2.55851 12.4311 2.74825 12.4311C3.00269 12.4311 3.2467 12.33 3.42661 12.1501C3.60653 11.9702 3.7076 11.7262 3.7076 11.4718ZM3.7076 8.06176C3.7076 7.87202 3.65134 7.68654 3.54592 7.52878C3.44051 7.37101 3.29068 7.24805 3.11538 7.17544C2.94008 7.10283 2.74719 7.08383 2.56109 7.12085C2.375 7.15786 2.20406 7.24923 2.06989 7.3834C1.93572 7.51757 1.84435 7.68851 1.80734 7.8746C1.77032 8.0607 1.78932 8.25359 1.86193 8.42889C1.93454 8.60419 2.0575 8.75402 2.21527 8.85943C2.37303 8.96485 2.55851 9.02111 2.74825 9.02111C3.00269 9.02111 3.2467 8.92004 3.42661 8.74013C3.60653 8.56021 3.7076 8.3162 3.7076 8.06176ZM7.8951 11.4718C7.8951 11.282 7.83883 11.0966 7.73342 10.9388C7.628 10.781 7.47817 10.6581 7.30287 10.5855C7.12757 10.5128 6.93468 10.4938 6.74859 10.5309C6.56249 10.5679 6.39155 10.6592 6.25738 10.7934C6.12322 10.9276 6.03185 11.0985 5.99483 11.2846C5.95781 11.4707 5.97681 11.6636 6.04942 11.8389C6.12203 12.0142 6.245 12.164 6.40276 12.2694C6.56052 12.3749 6.746 12.4311 6.93575 12.4311C7.19018 12.4311 7.4342 12.33 7.61411 12.1501C7.79402 11.9702 7.8951 11.7262 7.8951 11.4718ZM7.8951 8.06176C7.8951 7.87202 7.83883 7.68654 7.73342 7.52878C7.628 7.37101 7.47817 7.24805 7.30287 7.17544C7.12757 7.10283 6.93468 7.08383 6.74859 7.12085C6.56249 7.15786 6.39155 7.24923 6.25738 7.3834C6.12322 7.51757 6.03185 7.68851 5.99483 7.8746C5.95781 8.0607 5.97681 8.25359 6.04942 8.42889C6.12203 8.60419 6.245 8.75402 6.40276 8.85943C6.56052 8.96485 6.746 9.02111 6.93575 9.02111C7.19018 9.02111 7.4342 8.92004 7.61411 8.74013C7.79402 8.56021 7.8951 8.3162 7.8951 8.06176ZM12.0826 11.4718C12.0826 11.282 12.0263 11.0966 11.9209 10.9388C11.8155 10.781 11.6657 10.6581 11.4904 10.5855C11.3151 10.5128 11.1222 10.4938 10.9361 10.5309C10.75 10.5679 10.579 10.6592 10.4449 10.7934C10.3107 10.9276 10.2193 11.0985 10.1823 11.2846C10.1453 11.4707 10.1643 11.6636 10.2369 11.8389C10.3095 12.0142 10.4325 12.164 10.5903 12.2694C10.748 12.3749 10.9335 12.4311 11.1232 12.4311C11.3773 12.4299 11.6206 12.3285 11.8003 12.1488C11.9799 11.9692 12.0814 11.7258 12.0826 11.4718ZM12.0826 8.06176C12.0826 7.87202 12.0263 7.68654 11.9209 7.52878C11.8155 7.37101 11.6657 7.24805 11.4904 7.17544C11.3151 7.10283 11.1222 7.08383 10.9361 7.12085C10.75 7.15786 10.579 7.24923 10.4449 7.3834C10.3107 7.51757 10.2193 7.68851 10.1823 7.8746C10.1453 8.0607 10.1643 8.25359 10.2369 8.42889C10.3095 8.60419 10.4325 8.75402 10.5903 8.85943C10.748 8.96485 10.9335 9.02111 11.1232 9.02111C11.3773 9.01992 11.6206 8.91846 11.8003 8.7388C11.9799 8.55915 12.0814 8.31583 12.0826 8.06176Z" fill="#009CDE"/>
</svg>
