<svg width="16" height="16" viewBox="0 0 16 16" fill="none" xmlns="http://www.w3.org/2000/svg">
<path d="M6.04828 15.7422C5.7903 15.7422 5.53812 15.6657 5.32362 15.5224C5.10912 15.379 4.94194 15.1753 4.84322 14.937C4.74449 14.6987 4.71866 14.4364 4.76899 14.1834C4.81932 13.9304 4.94355 13.6979 5.12596 13.5155C5.30838 13.3331 5.54079 13.2089 5.79381 13.1586C6.04683 13.1082 6.30909 13.1341 6.54743 13.2328C6.78577 13.3315 6.98948 13.4987 7.1328 13.7132C7.27613 13.9277 7.35262 14.1799 7.35262 14.4378C7.35262 14.7838 7.2152 15.1155 6.97059 15.3602C6.72598 15.6048 6.39421 15.7422 6.04828 15.7422ZM13.2222 15.7422C12.9642 15.7422 12.712 15.6657 12.4975 15.5224C12.283 15.379 12.1159 15.1753 12.0171 14.937C11.9184 14.6987 11.8926 14.4364 11.9429 14.1834C11.9932 13.9304 12.1175 13.6979 12.2999 13.5155C12.4823 13.3331 12.7147 13.2089 12.9677 13.1586C13.2207 13.1082 13.483 13.1341 13.7213 13.2328C13.9597 13.3315 14.1634 13.4987 14.3067 13.7132C14.45 13.9277 14.5265 14.1799 14.5265 14.4378C14.5265 14.7838 14.3891 15.1155 14.1445 15.3602C13.8999 15.6048 13.5681 15.7422 13.2222 15.7422ZM6.45262 11.8291C6.002 11.8256 5.5664 11.6667 5.21943 11.3791C4.87245 11.0915 4.63539 10.693 4.54828 10.2509L3.45697 4.81176C3.45488 4.79443 3.45488 4.77692 3.45697 4.75959L2.91349 2.04654H0.830885C0.657918 2.04654 0.492035 1.97783 0.369729 1.85552C0.247422 1.73322 0.178711 1.56733 0.178711 1.39436C0.178711 1.22139 0.247422 1.05552 0.369729 0.933214C0.492035 0.810908 0.657918 0.742188 0.830885 0.742188H3.43958C3.58904 0.744353 3.73322 0.797799 3.84798 0.893568C3.96275 0.989337 4.04113 1.12163 4.07002 1.26828L4.61784 4.00306H15.1787C15.2742 4.00444 15.3683 4.0268 15.4543 4.06855C15.5402 4.1103 15.6159 4.17042 15.6761 4.24466C15.7362 4.31891 15.7793 4.40545 15.8023 4.49818C15.8253 4.59092 15.8276 4.68758 15.8091 4.78132L14.7657 10.2509C14.6777 10.7023 14.4332 11.1081 14.0752 11.3968C13.7173 11.6856 13.2689 11.8387 12.8091 11.8291H6.45262Z" fill="#009CDE"/>
</svg>
