<svg width="16" height="16" viewBox="0 0 16 16" fill="none" xmlns="http://www.w3.org/2000/svg">
<path d="M13.9936 0.742193H1.99362C1.59724 0.744395 1.21785 0.903403 0.938345 1.18447C0.65884 1.46553 0.501947 1.84581 0.501953 2.24219V15.7422L3.49778 12.7422H13.9978C14.3956 12.7422 14.7771 12.5841 15.0584 12.3028C15.3397 12.0215 15.4978 11.64 15.4978 11.2422V2.24219C15.4978 2.04486 15.4588 1.84947 15.3832 1.66721C15.3076 1.48495 15.1967 1.3194 15.057 1.18006C14.9172 1.04071 14.7514 0.930315 14.5689 0.855178C14.3864 0.780042 14.1909 0.741645 13.9936 0.742193ZM5.74362 7.49219H4.24362V5.99219H5.74362V7.49219ZM8.74361 7.49219H7.24778V5.99219H8.74778L8.74361 7.49219ZM11.7436 7.49219H10.2436V5.99219H11.7436V7.49219Z" fill="#009CDE"/>
</svg>
