<svg width="12" height="12" viewBox="0 0 12 12" fill="none" xmlns="http://www.w3.org/2000/svg">
<path d="M6.89114 6.00997L11.2914 1.59978C11.3551 1.54241 11.4064 1.47263 11.4422 1.39471C11.4781 1.31679 11.4977 1.23236 11.4998 1.14658C11.502 1.06081 11.4866 0.975505 11.4547 0.895877C11.4229 0.816249 11.3751 0.743976 11.3144 0.68348C11.2537 0.622984 11.1813 0.575536 11.1017 0.544039C11.0221 0.512542 10.9369 0.497659 10.8513 0.500299C10.7657 0.502939 10.6816 0.523047 10.6041 0.559393C10.5265 0.59574 10.4572 0.64756 10.4003 0.711684L6 5.12188L1.59969 0.711684C1.54281 0.64756 1.47348 0.59574 1.39594 0.559393C1.31839 0.523047 1.23427 0.502939 1.1487 0.500299C1.06313 0.497659 0.977932 0.512542 0.898303 0.544039C0.818674 0.575536 0.746294 0.622984 0.68559 0.68348C0.624887 0.743976 0.577135 0.816249 0.545259 0.895877C0.513382 0.975505 0.498049 1.06081 0.500198 1.14658C0.502348 1.23236 0.521934 1.31679 0.557759 1.39471C0.593584 1.47263 0.644895 1.54241 0.708552 1.59978L5.10886 6.00997L0.708552 10.4202C0.592602 10.5398 0.527739 10.7 0.527739 10.8667C0.527739 11.0335 0.592602 11.1937 0.708552 11.3133C0.828235 11.4312 0.988818 11.4981 1.15664 11.5C1.32315 11.499 1.48247 11.4318 1.59969 11.3133L6 6.90311L10.4003 11.3133C10.5175 11.4318 10.6768 11.499 10.8434 11.5C11.0112 11.4981 11.1718 11.4312 11.2914 11.3133C11.4074 11.1937 11.4723 11.0335 11.4723 10.8667C11.4723 10.7 11.4074 10.5398 11.2914 10.4202L6.89114 6.00997Z" fill="black"/>
</svg>
