<svg width="14" height="9" viewBox="0 0 14 9" fill="none" xmlns="http://www.w3.org/2000/svg">
<path d="M13.6531 0.605588C13.7631 0.711943 13.8503 0.838225 13.9099 0.977218C13.9694 1.11621 14 1.26519 14 1.41564C14 1.5661 13.9694 1.71508 13.9099 1.85407C13.8503 1.99307 13.7631 2.11935 13.6531 2.2257L7.7649 7.91007C7.54959 8.11723 7.26026 8.23638 6.95672 8.24288C6.65318 8.24938 6.35867 8.14273 6.13411 7.94499L0.361327 2.35839C0.249509 2.25384 0.160049 2.129 0.0980834 1.99101C0.0361165 1.85301 0.00285619 1.70455 0.000176372 1.55411C-0.0025044 1.40367 0.0254564 1.25419 0.0824699 1.11421C0.139484 0.974223 0.224429 0.846483 0.332458 0.738271C0.440485 0.630058 0.569489 0.543495 0.712085 0.483527C0.85468 0.423559 1.00807 0.391361 1.16352 0.388767C1.31898 0.386173 1.47344 0.413237 1.61809 0.468412C1.76274 0.523587 1.89475 0.605793 2.00657 0.710337L6.99281 5.46593L11.979 0.577654C12.0877 0.471662 12.217 0.387539 12.3594 0.33013C12.5018 0.272721 12.6546 0.243164 12.8089 0.243164C12.9632 0.243164 13.1159 0.272721 13.2583 0.33013C13.4008 0.387539 13.53 0.471662 13.6387 0.577654L13.6531 0.605588Z" fill="#009CDE"/>
</svg>
