<svg width="17" height="15" viewBox="0 0 17 15" fill="none" xmlns="http://www.w3.org/2000/svg">
<path d="M11.6833 2.94212L14.1889 5.44768C14.2944 5.55323 14.2944 5.72545 14.1889 5.83101L8.12222 11.8977L5.54444 12.1838C5.2 12.2227 4.90833 11.931 4.94722 11.5866L5.23333 9.00879L11.3 2.94212C11.4056 2.83657 11.5778 2.83657 11.6833 2.94212ZM16.1833 2.30601L14.8278 0.950456C14.4056 0.528234 13.7194 0.528234 13.2944 0.950456L12.3111 1.93379C12.2056 2.03934 12.2056 2.21157 12.3111 2.31712L14.8167 4.82268C14.9222 4.92823 15.0944 4.92823 15.2 4.82268L16.1833 3.83934C16.6056 3.41434 16.6056 2.72823 16.1833 2.30601ZM11.1667 10.2477V13.0755H2.27778V4.18657H8.66111C8.75 4.18657 8.83333 4.15046 8.89722 4.08934L10.0083 2.97823C10.2194 2.76712 10.0694 2.40879 9.77222 2.40879H1.83333C1.09722 2.40879 0.5 3.00601 0.5 3.74212V13.5199C0.5 14.256 1.09722 14.8532 1.83333 14.8532H11.6111C12.3472 14.8532 12.9444 14.256 12.9444 13.5199V9.13657C12.9444 8.83934 12.5861 8.69212 12.375 8.90045L11.2639 10.0116C11.2028 10.0755 11.1667 10.1588 11.1667 10.2477Z" fill="#009CDE"/>
</svg>
