<svg width="16" height="13" viewBox="0 0 16 13" fill="none" xmlns="http://www.w3.org/2000/svg">
<path d="M15.6969 4.20469C15.8187 4.10781 16 4.19844 16 4.35156V10.7422C16 11.5703 15.3281 12.2422 14.5 12.2422H1.5C0.671875 12.2422 0 11.5703 0 10.7422V4.35469C0 4.19844 0.178125 4.11094 0.303125 4.20781C1.00312 4.75156 1.93125 5.44219 5.11875 7.75781C5.77813 8.23906 6.89062 9.25156 8 9.24531C9.11563 9.25469 10.25 8.22031 10.8844 7.75781C14.0719 5.44219 14.9969 4.74844 15.6969 4.20469ZM8 8.24219C8.725 8.25469 9.76875 7.32969 10.2937 6.94844C14.4406 3.93906 14.7562 3.67656 15.7125 2.92656C15.8937 2.78594 16 2.56719 16 2.33594V1.74219C16 0.914062 15.3281 0.242188 14.5 0.242188H1.5C0.671875 0.242187 0 0.914062 0 1.74219V2.33594C0 2.56719 0.10625 2.78281 0.2875 2.92656C1.24375 3.67344 1.55938 3.93906 5.70625 6.94844C6.23125 7.32969 7.275 8.25469 8 8.24219Z" fill="#009CDE"/>
</svg>
