<svg width="14" height="12" viewBox="0 0 14 12" fill="none" xmlns="http://www.w3.org/2000/svg">
<path d="M13.5958 10.3142C13.6702 10.4421 13.7186 10.5834 13.7381 10.7301C13.7576 10.8768 13.7479 11.0259 13.7095 11.1687C13.671 11.3116 13.6047 11.4455 13.5142 11.5626C13.4238 11.6796 13.311 11.7776 13.1824 11.8509C13.0119 11.9485 12.8189 12.0001 12.6225 12.0009H1.37578C1.22798 12.0009 1.08164 11.9717 0.945129 11.9151C0.808622 11.8584 0.684641 11.7754 0.580286 11.6707C0.475931 11.566 0.393256 11.4418 0.337 11.3051C0.280743 11.1685 0.252012 11.022 0.252451 10.8742C0.251639 10.6775 0.303425 10.4842 0.40245 10.3142L6.02578 0.564229C6.09936 0.436007 6.19753 0.323574 6.31465 0.233368C6.43177 0.143162 6.56555 0.0769536 6.70831 0.038554C6.85107 0.000154341 7 -0.00968489 7.14658 0.00959278C7.29315 0.0288705 7.43447 0.0768916 7.56245 0.150899C7.73346 0.249744 7.875 0.392427 7.97245 0.564229L13.5958 10.3142ZM6.99911 8.31423C6.78523 8.31357 6.57597 8.37644 6.39785 8.49485C6.21974 8.61327 6.08079 8.78191 5.99864 8.97939C5.91648 9.17687 5.89481 9.3943 5.93638 9.60411C5.97795 9.81392 6.08087 10.0067 6.23211 10.1579C6.38335 10.3091 6.5761 10.4121 6.78591 10.4536C6.99572 10.4952 7.21314 10.4735 7.41062 10.3914C7.6081 10.3092 7.77674 10.1703 7.89516 9.99217C8.01358 9.81405 8.07644 9.60479 8.07578 9.3909C8.07578 9.24951 8.04793 9.1095 7.99382 8.97887C7.93972 8.84824 7.86041 8.72956 7.76044 8.62958C7.66046 8.5296 7.54176 8.4503 7.41114 8.39619C7.28051 8.34208 7.1405 8.31423 6.99911 8.31423ZM5.97578 4.43756L6.14912 7.62756C6.15255 7.69949 6.18355 7.76733 6.2357 7.81699C6.28784 7.86665 6.35711 7.89431 6.42912 7.89423H7.56912C7.64112 7.89431 7.71039 7.86665 7.76254 7.81699C7.81468 7.76733 7.84569 7.69949 7.84912 7.62756L8.02245 4.4409C8.0247 4.40385 8.01956 4.36672 8.00733 4.33168C7.9951 4.29663 7.97602 4.26436 7.9512 4.23676C7.92639 4.20915 7.89633 4.18675 7.86278 4.17087C7.82923 4.15498 7.79286 4.14593 7.75578 4.14423H6.25578C6.18152 4.14423 6.1103 4.17373 6.05779 4.22624C6.00528 4.27875 5.97578 4.34996 5.97578 4.42422V4.4409V4.43756Z" fill="#E20613"/>
</svg>
