<svg width="18" height="22" viewBox="0 0 18 22" fill="none" xmlns="http://www.w3.org/2000/svg">
<path d="M16.86 0H1.13333C0.834521 0 0.547951 0.108814 0.33666 0.302497C0.125369 0.49618 0.006663 0.75887 0.006663 1.03278V1.72334C0.006663 1.99563 0.124666 2.25676 0.334707 2.44929C0.544747 2.64183 0.829621 2.75 1.12666 2.75C1.12666 6.66111 3.51333 9.96111 6.79333 11C3.52 12.045 1.12666 15.3389 1.12666 19.25C0.827853 19.25 0.541283 19.3588 0.329992 19.5525C0.118701 19.7462 0 20.0089 0 20.2828V20.9733C0 21.2456 0.117998 21.5068 0.328039 21.6993C0.538079 21.8918 0.822958 22 1.12 22H16.8733C17.171 22 17.4566 21.892 17.6677 21.6997C17.8788 21.5073 17.9982 21.2462 18 20.9733V20.2828C18 20.0089 17.8813 19.7462 17.67 19.5525C17.4587 19.3588 17.1721 19.25 16.8733 19.25C16.8733 15.3389 14.48 12.045 11.2067 11C14.48 9.96111 16.8733 6.66111 16.8733 2.75C17.171 2.75 17.4566 2.64203 17.6677 2.44967C17.8788 2.2573 17.9982 1.99619 18 1.72334V1.03278C18 0.75887 17.8813 0.49618 17.67 0.302497C17.4587 0.108814 17.1721 0 16.8733 0H16.86ZM13.34 16.5H4.62666C5.42666 14.4894 7.07333 13.0656 8.98666 13.0656C10.9 13.0656 12.54 14.4894 13.34 16.5ZM13.34 5.5H4.62666C4.28073 4.6179 4.10478 3.68737 4.10666 2.75H13.86C13.8619 3.68737 13.6859 4.6179 13.34 5.5V5.5Z" fill="#F29100"/>
</svg>
