<svg width="16" height="16" viewBox="0 0 16 16" fill="none" xmlns="http://www.w3.org/2000/svg">
<path d="M8 0.743164C6.51664 0.743164 5.06659 1.18303 3.83323 2.00714C2.59986 2.83125 1.63856 4.00259 1.07091 5.37304C0.50325 6.74348 0.354725 8.25148 0.644114 9.70634C0.933503 11.1612 1.64781 12.4976 2.6967 13.5465C3.7456 14.5954 5.08197 15.3097 6.53682 15.5991C7.99168 15.8884 9.49968 15.7399 10.8701 15.1723C12.2406 14.6046 13.4119 13.6433 14.236 12.4099C15.0601 11.1766 15.5 9.72652 15.5 8.24316C15.5 7.25825 15.306 6.28298 14.9291 5.37304C14.5522 4.4631 13.9997 3.6363 13.3033 2.93986C12.6069 2.24342 11.7801 1.69098 10.8701 1.31407C9.96019 0.937157 8.98491 0.743164 8 0.743164ZM12.7917 8.75566C12.7917 8.82515 12.778 8.89396 12.7514 8.95817C12.7248 9.02237 12.6858 9.0807 12.6367 9.12984C12.5875 9.17898 12.5292 9.21795 12.465 9.24455C12.4008 9.27114 12.332 9.28483 12.2625 9.28483H3.73334C3.66404 9.28483 3.59543 9.27111 3.53146 9.24447C3.46749 9.21783 3.40943 9.17878 3.36062 9.12959C3.31182 9.0804 3.27323 9.02203 3.2471 8.95785C3.22096 8.89367 3.20779 8.82496 3.20834 8.75566V7.73066C3.20779 7.66137 3.22096 7.59265 3.2471 7.52847C3.27323 7.4643 3.31182 7.40593 3.36062 7.35673C3.40943 7.30754 3.46749 7.2685 3.53146 7.24185C3.59543 7.21521 3.66404 7.20149 3.73334 7.2015H12.2625C12.332 7.2015 12.4008 7.21518 12.465 7.24178C12.5292 7.26837 12.5875 7.30735 12.6367 7.35649C12.6858 7.40562 12.7248 7.46396 12.7514 7.52816C12.778 7.59236 12.7917 7.66117 12.7917 7.73066V8.75566Z" fill="#AAAAAA"/>
</svg>
