<svg width="18" height="17" viewBox="0 0 18 17" fill="none" xmlns="http://www.w3.org/2000/svg">
<path d="M12.3923 10.2757C12.3923 10.4269 12.3475 10.5747 12.2635 10.7004C12.1795 10.8261 12.0601 10.9241 11.9204 10.982C11.7807 11.0399 11.627 11.055 11.4787 11.0255C11.3304 10.996 11.1942 10.9232 11.0873 10.8163C10.9803 10.7094 10.9075 10.5731 10.878 10.4248C10.8485 10.2765 10.8637 10.1228 10.9215 9.98312C10.9794 9.84343 11.0774 9.72403 11.2031 9.64002C11.3288 9.55602 11.4766 9.51118 11.6278 9.51118C11.8306 9.51118 12.0251 9.59173 12.1684 9.7351C12.3118 9.87847 12.3923 10.0729 12.3923 10.2757ZM16.4682 9.52007L15.2726 10.7202V12.8581C15.2679 13.2971 15.0902 13.7165 14.7781 14.0253C14.4661 14.334 14.0448 14.5072 13.6058 14.5072H11.4634L10.2677 15.7073C10.1021 15.8766 9.9044 16.0111 9.6861 16.103C9.4678 16.1949 9.23335 16.2422 8.99651 16.2422C8.75967 16.2422 8.52522 16.1949 8.30692 16.103C8.08862 16.0111 7.89087 15.8766 7.72529 15.7073L6.52964 14.5072H4.38724C3.94517 14.5072 3.52121 14.3315 3.20863 14.019C2.89604 13.7064 2.72043 13.2824 2.72043 12.8403V10.7202L1.52033 9.52007C1.18484 9.18204 0.996582 8.7251 0.996582 8.24885C0.996582 7.77261 1.18484 7.31566 1.52033 6.97764L2.72043 5.78198V3.63958C2.72043 3.19752 2.89604 2.77356 3.20863 2.46097C3.52121 2.14839 3.94517 1.97278 4.38724 1.97278H6.52964L7.72529 0.777122C7.89087 0.607781 8.08862 0.47323 8.30692 0.381369C8.52522 0.289508 8.75967 0.242188 8.99651 0.242188C9.23335 0.242188 9.4678 0.289508 9.6861 0.381369C9.9044 0.47323 10.1021 0.607781 10.2677 0.777122L11.4634 1.97278H13.6058C14.0478 1.97278 14.4718 2.14839 14.7844 2.46097C15.097 2.77356 15.2726 3.19752 15.2726 3.63958V5.78198L16.4682 6.97764C16.6376 7.14322 16.7721 7.34096 16.864 7.55926C16.9559 7.77756 17.0032 8.01201 17.0032 8.24885C17.0032 8.48569 16.9559 8.72015 16.864 8.93845C16.7721 9.15674 16.6376 9.35449 16.4682 9.52007ZM6.36518 7.9955C6.71682 7.9955 7.06056 7.89123 7.35294 7.69587C7.64532 7.5005 7.8732 7.22283 8.00777 6.89796C8.14233 6.57308 8.17754 6.2156 8.10894 5.87072C8.04034 5.52583 7.87101 5.20904 7.62236 4.96039C7.37371 4.71174 7.05692 4.54241 6.71203 4.47381C6.36715 4.40521 6.00967 4.44042 5.6848 4.57499C5.35992 4.70955 5.08225 4.93743 4.88689 5.22981C4.69153 5.52219 4.58725 5.86593 4.58725 6.21757C4.58725 6.68911 4.77457 7.14133 5.108 7.47476C5.44142 7.80818 5.89364 7.9955 6.36518 7.9955ZM12.0279 4.64411C12.0389 4.62329 12.0442 4.59993 12.0433 4.5764C12.0423 4.55286 12.0352 4.53 12.0225 4.51013C12.0099 4.49026 11.9922 4.47409 11.9713 4.46327C11.9504 4.45246 11.9269 4.44737 11.9034 4.44854H10.7122C10.6629 4.44803 10.6142 4.45998 10.5707 4.48329C10.5271 4.5066 10.4902 4.54051 10.4633 4.58188L5.94737 11.9025C5.93831 11.918 5.9337 11.9357 5.93405 11.9537C5.93439 11.9716 5.93967 11.9891 5.94932 12.0043C5.95896 12.0194 5.97259 12.0316 5.98871 12.0396C6.00483 12.0475 6.02282 12.0508 6.04071 12.0492H7.37415C7.3989 12.0499 7.42341 12.0441 7.44524 12.0324C7.46706 12.0207 7.48546 12.0035 7.49861 11.9825L12.0279 4.64411ZM13.4013 10.2757C13.4013 9.92405 13.297 9.58031 13.1017 9.28793C12.9063 8.99555 12.6287 8.76767 12.3038 8.6331C11.9789 8.49853 11.6214 8.46332 11.2765 8.53193C10.9317 8.60053 10.6149 8.76986 10.3662 9.01851C10.1176 9.26715 9.94823 9.58395 9.87963 9.92883C9.81103 10.2737 9.84624 10.6312 9.9808 10.9561C10.1154 11.2809 10.3433 11.5586 10.6356 11.754C10.928 11.9493 11.2718 12.0536 11.6234 12.0536C11.8569 12.0536 12.0881 12.0076 12.3038 11.9183C12.5195 11.8289 12.7155 11.698 12.8806 11.5329C13.0457 11.3678 13.1766 11.1718 13.266 10.9561C13.3553 10.7404 13.4013 10.5092 13.4013 10.2757ZM7.12969 6.22202C7.12969 6.07081 7.08485 5.923 7.00084 5.79728C6.91684 5.67156 6.79744 5.57357 6.65774 5.51571C6.51805 5.45784 6.36433 5.4427 6.21603 5.4722C6.06773 5.5017 5.93151 5.57451 5.82459 5.68143C5.71767 5.78835 5.64486 5.92457 5.61536 6.07287C5.58586 6.22117 5.601 6.37489 5.65886 6.51458C5.71673 6.65428 5.81472 6.77368 5.94044 6.85768C6.06616 6.94169 6.21397 6.98653 6.36518 6.98653C6.56794 6.98653 6.76239 6.90598 6.90577 6.76261C7.04914 6.61923 7.12969 6.42478 7.12969 6.22202Z" fill="#F29100"/>
</svg>
