<svg width="30" height="30" viewBox="0 0 30 30" fill="none" xmlns="http://www.w3.org/2000/svg">
<rect width="30" height="30" rx="15" fill="#009CDE"/>
<path d="M12.1985 12.1986C12.5011 11.8956 12.7071 11.5098 12.7904 11.0898C12.8738 10.6698 12.8307 10.2346 12.6667 9.83906C12.5028 9.44354 12.2252 9.1055 11.8692 8.86768C11.5131 8.62986 11.0946 8.50293 10.6664 8.50293C10.2382 8.50293 9.81968 8.62986 9.46364 8.86768C9.10759 9.1055 8.83004 9.44354 8.66607 9.83906C8.50209 10.2346 8.45905 10.6698 8.54239 11.0898C8.62572 11.5098 8.83169 11.8956 9.13426 12.1986C9.33538 12.4 9.57421 12.5597 9.83711 12.6687C10.1 12.7777 10.3818 12.8338 10.6664 12.8338C10.951 12.8338 11.2328 12.7777 11.4957 12.6687C11.7586 12.5597 11.9974 12.4 12.1985 12.1986ZM20.864 17.7997C20.561 17.4972 20.1752 17.2912 19.7552 17.2079C19.3352 17.1245 18.9 17.1676 18.5044 17.3315C18.1089 17.4955 17.7709 17.7731 17.5331 18.1291C17.2952 18.4852 17.1683 18.9037 17.1683 19.3319C17.1683 19.76 17.2952 20.1786 17.5331 20.5347C17.7709 20.8907 18.1089 21.1682 18.5044 21.3322C18.9 21.4962 19.3352 21.5392 19.7552 21.4559C20.1752 21.3726 20.561 21.1666 20.864 20.864C21.0653 20.6629 21.2251 20.4241 21.3341 20.1612C21.4431 19.8983 21.4992 19.6165 21.4992 19.3319C21.4992 19.0473 21.4431 18.7655 21.3341 18.5026C21.2251 18.2397 21.0653 18.0009 20.864 17.7997ZM20.8008 9.96631L20.032 9.20117C19.9316 9.10054 19.8123 9.02071 19.681 8.96624C19.5497 8.91176 19.409 8.88373 19.2668 8.88373C19.1247 8.88373 18.9839 8.91176 18.8526 8.96624C18.7213 9.02071 18.6021 9.10054 18.5017 9.20117L9.21598 18.4869C9.11535 18.5873 9.03552 18.7065 8.98105 18.8378C8.92658 18.9691 8.89854 19.1099 8.89854 19.252C8.89854 19.3942 8.92658 19.5349 8.98105 19.6662C9.03552 19.7975 9.11535 19.9168 9.21598 20.0172L9.98112 20.7823C10.1844 20.9846 10.4595 21.0982 10.7463 21.0982C11.033 21.0982 11.3082 20.9846 11.5114 20.7823L20.7971 11.4966C20.9994 11.2933 21.113 11.0182 21.113 10.7315C21.113 10.4447 20.9994 10.1696 20.7971 9.96631H20.8008Z" fill="white"/>
</svg>
