<svg width="15" height="16" viewBox="0 0 15 16" fill="none" xmlns="http://www.w3.org/2000/svg">
<path d="M7.49508 0.742188C6.2645 0.747969 5.05425 1.05647 3.97106 1.64046C2.88787 2.22446 1.96502 3.06601 1.28389 4.09091C0.602763 5.11582 0.184286 6.29259 0.0653729 7.51742C-0.0535402 8.74225 0.130762 9.97752 0.602021 11.1143C1.07328 12.2511 1.81701 13.2544 2.76764 14.0359C3.71827 14.8173 4.84658 15.3529 6.05307 15.5953C7.25956 15.8376 8.50715 15.7794 9.68583 15.4258C10.8645 15.0721 11.938 14.4338 12.8118 13.5673L11.4618 12.2173C10.81 12.8777 10.005 13.3668 9.1185 13.6409C8.23201 13.9151 7.29149 13.9659 6.38064 13.7887C5.46979 13.6116 4.61685 13.212 3.89773 12.6256C3.17861 12.0392 2.6156 11.2841 2.25881 10.4275C1.90202 9.57089 1.76252 8.6394 1.85272 7.71587C1.94292 6.79235 2.26001 5.90544 2.77579 5.13407C3.29157 4.36271 3.99004 3.73081 4.80904 3.2946C5.62804 2.8584 6.54216 2.63143 7.47008 2.63387C8.2043 2.64032 8.92967 2.79496 9.60268 3.08851C10.2757 3.38206 10.8825 3.80849 11.3868 4.34221L9.34509 6.38389H14.9701V0.758858L12.7368 2.9922C12.0489 2.29183 11.2297 1.73406 10.3259 1.35083C9.42218 0.96759 8.4517 0.766425 7.47008 0.758858L7.49508 0.742188Z" fill="#009CDE"/>
</svg>
