<svg width="16" height="15" viewBox="0 0 16 15" fill="none" xmlns="http://www.w3.org/2000/svg">
<path d="M15.6368 3.48516L13.9509 0.652344C13.8002 0.398047 13.5326 0.242188 13.2469 0.242188H2.75211C2.46636 0.242188 2.1988 0.398047 2.04813 0.652344L0.362218 3.48516C-0.508016 4.94805 0.263505 6.98242 1.88967 7.21484C2.00657 7.23125 2.12606 7.23945 2.24556 7.23945C3.01448 7.23945 3.69508 6.88398 4.16267 6.33437C4.63026 6.88398 5.31346 7.23945 6.07978 7.23945C6.84871 7.23945 7.52931 6.88398 7.99689 6.33437C8.46448 6.88398 9.14768 7.23945 9.91401 7.23945C10.6829 7.23945 11.3635 6.88398 11.8311 6.33437C12.3013 6.88398 12.9819 7.23945 13.7482 7.23945C13.8703 7.23945 13.9872 7.23125 14.1041 7.21484C15.7355 6.98516 16.5096 4.95078 15.6368 3.48516ZM13.7534 8.11719C13.4937 8.11719 13.2365 8.07617 12.9871 8.01328V10.7422H3.01188V8.01328C2.7625 8.07344 2.50533 8.11719 2.24556 8.11719C2.0897 8.11719 1.93124 8.10625 1.77797 8.08437C1.6325 8.0625 1.48962 8.02695 1.35195 7.98594V13.3672C1.35195 13.8512 1.72342 14.2422 2.18321 14.2422H13.821C14.2808 14.2422 14.6522 13.8512 14.6522 13.3672V7.98594C14.512 8.02969 14.3717 8.06523 14.2262 8.08437C14.0677 8.10625 13.9119 8.11719 13.7534 8.11719Z" fill="#009CDE"/>
</svg>
