<svg width="22" height="22" viewBox="0 0 22 22" fill="none" xmlns="http://www.w3.org/2000/svg">
<path d="M22 11C22 13.1756 21.3549 15.3023 20.1462 17.1113C18.9375 18.9202 17.2195 20.3301 15.2095 21.1627C13.1995 21.9952 10.9878 22.2131 8.85401 21.7886C6.72022 21.3642 4.7602 20.3166 3.22183 18.7782C1.68345 17.2398 0.635804 15.2798 0.211366 13.146C-0.213071 11.0122 0.00476782 8.80046 0.837332 6.79048C1.6699 4.78049 3.07979 3.06252 4.88873 1.85383C6.69767 0.645133 8.82441 0 11 0C13.9174 0 16.7153 1.15894 18.7782 3.22183C20.8411 5.28473 22 8.08262 22 11ZM9.72278 16.8239L17.8872 8.66555C18.0201 8.53262 18.0947 8.35239 18.0947 8.16445C18.0947 7.97652 18.0201 7.79627 17.8872 7.66334L16.885 6.66722C16.7503 6.53546 16.5693 6.46168 16.3808 6.46168C16.1924 6.46168 16.0114 6.53546 15.8767 6.66722L9.22167 13.3222L6.11723 10.2178C5.98249 10.086 5.80151 10.0122 5.61305 10.0122C5.4246 10.0122 5.24363 10.086 5.10889 10.2178L4.10667 11.22C3.97382 11.3529 3.89919 11.5332 3.89919 11.7211C3.89919 11.909 3.97382 12.0893 4.10667 12.2222L8.72056 16.8361C8.78596 16.9026 8.86396 16.9555 8.95 16.9915C9.03603 17.0276 9.12838 17.0462 9.22167 17.0462C9.31495 17.0462 9.40731 17.0276 9.49334 16.9915C9.57938 16.9555 9.65738 16.9026 9.72278 16.8361V16.8239Z" fill="#009CDE"/>
</svg>
