<svg width="14" height="14" viewBox="0 0 14 14" fill="none" xmlns="http://www.w3.org/2000/svg">
<path d="M0.328285 13.6481C0.153862 13.474 0.0666504 13.2524 0.0666504 12.9833C0.0666504 12.7142 0.153862 12.4926 0.328285 12.3185L10.6986 1.96595H5.37071C5.10115 1.96595 4.87535 1.87509 4.69331 1.69336C4.51064 1.51101 4.41931 1.28528 4.41931 1.01618C4.41931 0.747076 4.51064 0.521347 4.69331 0.338991C4.87535 0.157268 5.10115 0.0664062 5.37071 0.0664062H12.9819C13.2515 0.0664062 13.4773 0.157268 13.6593 0.338991C13.842 0.521347 13.9333 0.747076 13.9333 1.01618V8.61435C13.9333 8.88345 13.842 9.10887 13.6593 9.29059C13.4773 9.47295 13.2515 9.56412 12.9819 9.56412C12.7124 9.56412 12.4866 9.47295 12.3045 9.29059C12.1219 9.10887 12.0305 8.88345 12.0305 8.61435V3.29563L1.63646 13.6719C1.46204 13.846 1.24797 13.9331 0.994266 13.9331C0.740559 13.9331 0.518565 13.8381 0.328285 13.6481Z" fill="#999999"/>
</svg>
