<svg width="16" height="12" viewBox="0 0 16 12" fill="none" xmlns="http://www.w3.org/2000/svg">
<path d="M3.55556 3H12.4444V9H3.55556V3ZM14.6667 6C14.6667 6.82844 15.2636 7.5 16 7.5V10.5C16 11.3284 15.4031 12 14.6667 12H1.33333C0.596944 12 0 11.3284 0 10.5V7.5C0.736389 7.5 1.33333 6.82844 1.33333 6C1.33333 5.17156 0.736389 4.5 0 4.5V1.5C0 0.671562 0.596944 0 1.33333 0H14.6667C15.4031 0 16 0.671562 16 1.5V4.5C15.2636 4.5 14.6667 5.17156 14.6667 6ZM13.3333 2.75C13.3333 2.33578 13.0349 2 12.6667 2H3.33333C2.96514 2 2.66667 2.33578 2.66667 2.75V9.25C2.66667 9.66422 2.96514 10 3.33333 10H12.6667C13.0349 10 13.3333 9.66422 13.3333 9.25V2.75Z" fill="#009CDE"/>
</svg>
