<svg width="14" height="14" viewBox="0 0 14 14" fill="none" xmlns="http://www.w3.org/2000/svg">
<path d="M6.99998 0.601562C5.73418 0.601563 4.4968 0.976916 3.44433 1.68016C2.39185 2.3834 1.57155 3.38294 1.08715 4.55239C0.602749 5.72183 0.476007 7.00866 0.722953 8.25014C0.969898 9.49162 1.57944 10.632 2.47449 11.527C3.36955 12.4221 4.50992 13.0316 5.7514 13.2786C6.99288 13.5255 8.2797 13.3988 9.44915 12.9144C10.6186 12.43 11.6181 11.6097 12.3214 10.5572C13.0246 9.50473 13.4 8.26736 13.4 7.00156C13.4 5.30418 12.7257 3.67631 11.5255 2.47608C10.3252 1.27585 8.69736 0.601563 6.99998 0.601562ZM7.88886 10.2478C7.88886 10.3327 7.85515 10.414 7.79514 10.4741C7.73513 10.5341 7.65373 10.5678 7.56887 10.5678H6.43109C6.34622 10.5678 6.26483 10.5341 6.20481 10.4741C6.1448 10.414 6.11109 10.3327 6.11109 10.2478V6.77401C6.11109 6.68914 6.1448 6.60774 6.20481 6.54773C6.26483 6.48772 6.34622 6.454 6.43109 6.454H7.56887C7.65373 6.454 7.73513 6.48772 7.79514 6.54773C7.85515 6.60774 7.88886 6.68914 7.88886 6.77401V10.2478ZM6.99998 5.88512C6.758 5.88161 6.52247 5.8066 6.32302 5.66955C6.12358 5.53249 5.96913 5.3395 5.87911 5.11486C5.7891 4.89022 5.76753 4.64398 5.81714 4.40712C5.86675 4.17026 5.98531 3.95336 6.15791 3.78373C6.3305 3.61409 6.54941 3.4993 6.7871 3.4538C7.02478 3.40829 7.27061 3.4341 7.49366 3.52799C7.7167 3.62188 7.907 3.77964 8.04059 3.98143C8.17418 4.18321 8.2451 4.42001 8.24442 4.66201C8.24303 4.82403 8.20973 4.98419 8.14644 5.13335C8.08314 5.2825 7.99108 5.41773 7.87553 5.53131C7.75997 5.64489 7.62317 5.73459 7.47294 5.7953C7.32271 5.856 7.162 5.88652 6.99998 5.88512Z" fill="#F29100"/>
</svg>
