<svg width="16" height="17" viewBox="0 0 16 17" fill="none" xmlns="http://www.w3.org/2000/svg">
<path d="M10.0721 8.39094C10.0358 8.14428 9.90992 7.91851 9.71722 7.75511C9.52465 7.5916 9.27815 7.50142 9.02312 7.50098H2.00521C1.7497 7.50332 1.50357 7.59529 1.31143 7.75991C1.11943 7.92464 0.994235 8.15119 0.958738 8.39854L0.945945 8.48604H10.0849L10.0721 8.39094Z" fill="#009CDE"/>
<path d="M10.1335 8.84668H0.889524L0.0119716 14.7993C-0.0352014 15.1047 0.0584574 15.4151 0.267822 15.6467C0.465763 15.8707 0.753032 16 1.05581 16.0017H9.86731C10.17 16.0047 10.4586 15.8765 10.6553 15.6517C10.8592 15.4221 10.9524 15.118 10.9111 14.8167L10.1335 8.84668ZM8.30153 14.5667C8.30016 14.6679 8.21575 14.7493 8.11227 14.7493H2.81631C2.76628 14.75 2.71808 14.731 2.68256 14.6967C2.64692 14.6623 2.62693 14.6156 2.62693 14.5667V10.2293C2.62693 10.1805 2.64692 10.1336 2.68256 10.0993C2.71808 10.0651 2.76628 10.0461 2.81631 10.0468H8.11227C8.21575 10.0468 8.30016 10.1281 8.30153 10.2293V14.5667Z" fill="#009CDE"/>
<path d="M7.20667 5.02849C7.20667 4.9103 7.15881 4.79679 7.07349 4.71298C6.98805 4.62916 6.87223 4.58172 6.75126 4.58105H4.17483C4.05342 4.58105 3.93691 4.62815 3.85103 4.71208C3.76514 4.79601 3.71682 4.90985 3.71682 5.02848V7.12603H7.20662L7.20667 5.02849Z" fill="#009CDE"/>
<path d="M3.00274 10.4131H7.92267V14.3831H3.00274V10.4131Z" fill="#009CDE"/>
<path d="M14.846 8.35845V6.33601H14.5902V3.66849C14.7803 3.59416 14.9467 3.47195 15.0725 3.31426C15.1984 3.15668 15.2792 2.96918 15.3066 2.77095L15.7159 0.306C15.7275 0.229883 15.7051 0.15254 15.6546 0.0934996C15.603 0.0355766 15.5285 0.00198228 15.4499 0.000976562H13.0398C12.9611 0.00131139 12.8864 0.0351281 12.8351 0.0934996C12.782 0.1512 12.7592 0.22966 12.7736 0.306L13.1805 2.77095C13.235 3.17106 13.5029 3.51281 13.8841 3.66849V6.33601H13.6282V8.35856L12.4922 8.35845V15.1085C12.4929 15.345 12.5894 15.5716 12.7605 15.7388C12.9317 15.9061 13.1636 16.0003 13.4056 16.001H15.0814C15.3246 16.001 15.5578 15.9068 15.73 15.739C15.9022 15.5712 15.9993 15.3436 15.9999 15.106V8.35599L14.846 8.35845Z" fill="#009CDE"/>
</svg>
