<svg width="17" height="16" viewBox="0 0 17 16" fill="none" xmlns="http://www.w3.org/2000/svg">
<path d="M3.16672 5.7931H9.68537V6.34483H3.16672V5.7931Z" fill="#009CDE"/>
<path d="M3.16672 6.89655H9.68537V9.37931H3.16672V6.89655Z" fill="#009CDE"/>
<path d="M6.42605 1.37931C7.08082 1.37931 7.61126 0.88547 7.61126 0.275862V0H5.24084V0.275862C5.24084 0.88547 5.77127 1.37931 6.42605 1.37931Z" fill="#009CDE"/>
<path d="M3.16672 3.03448V5.24138H9.68537V3.03448L10.5743 4.13793L12.3521 2.48276L9.98168 0H8.20386V0.275862C8.20386 1.18892 7.40676 1.93104 6.42605 1.93104C5.44534 1.93104 4.64823 1.18892 4.64823 0.275862V0H2.87042L0.5 2.48276L2.27781 4.13793L3.16672 3.03448Z" fill="#009CDE"/>
<path d="M12.6484 13.2414C12.6484 13.3937 12.5157 13.5172 12.3521 13.5172C12.1885 13.5172 12.0558 13.3937 12.0558 13.2414C12.0558 13.089 12.1885 12.9655 12.3521 12.9655C12.5157 12.9655 12.6484 13.089 12.6484 13.2414Z" fill="#009CDE"/>
<path d="M16.4854 15.098L15.7535 11.6994C15.6706 11.3132 15.3062 11.0346 14.8823 11.0346H14.7223V11.3105C14.7223 12.2126 14.1149 13.0208 13.2289 13.3546C13.1696 13.7573 12.7992 14.0691 12.3519 14.0691C11.9045 14.0691 11.5341 13.7574 11.4749 13.3546C10.5889 13.0208 9.98145 12.2124 9.98145 11.3105V11.0346H9.8214C9.3977 11.0346 9.0333 11.3132 8.9502 11.6994L8.59172 13.3711C8.67771 13.4207 8.7576 13.4703 8.83168 13.5255C9.17837 13.7627 9.47467 14.0937 9.67324 14.469C9.8747 14.8387 9.98145 15.2607 9.98145 15.6828V16H15.6911C15.9133 16 16.1179 15.9172 16.263 15.7793C16.4111 15.6441 16.5 15.4538 16.5 15.2469C16.5 15.1973 16.4943 15.1478 16.4854 15.098Z" fill="#009CDE"/>
<path d="M10.5743 10.4828V11.3103C10.5743 11.9531 10.9831 12.5379 11.5965 12.8083C11.7536 12.5738 12.0321 12.4138 12.3521 12.4138C12.6721 12.4138 12.9507 12.5738 13.1076 12.8083C13.721 12.5379 14.1299 11.9531 14.1299 11.3103V10.4828C14.1299 9.56971 13.3328 8.82759 12.3521 8.82759C11.3714 8.82759 10.5743 9.56971 10.5743 10.4828ZM13.5373 10.4828V11.0345H11.1669V10.4828C11.1669 9.87315 11.6973 9.37931 12.3521 9.37931C13.0069 9.37931 13.5373 9.87315 13.5373 10.4828Z" fill="#009CDE"/>
<path d="M1.23179 13.1834C1.02147 13.0454 0.766575 12.9682 0.511789 12.9654C0.526604 13.2248 0.568141 13.4813 0.633219 13.7351C0.730972 14.1186 0.796185 14.5102 0.796185 14.9048V16H1.98139V15.4262C1.98139 14.9104 2.05547 14.4 2.20362 13.9063C2.14436 13.8567 2.0851 13.807 2.02293 13.7601C1.76512 13.5532 1.49846 13.36 1.23179 13.1834Z" fill="#009CDE"/>
<path d="M8.4646 13.9586C8.35203 13.8759 8.23047 13.8069 8.10308 13.7462L7.61128 13.5173L7.35056 13.76C7.14606 13.9504 6.87648 14.0524 6.5921 14.0524H6.55056C6.24235 14.0413 5.95504 13.9062 5.76246 13.6826L5.12831 12.9543C4.58013 12.3198 3.96081 11.7461 3.28528 11.2412C2.60974 10.7336 1.87494 10.2951 1.09264 9.93091C0.713405 10.284 0.500033 10.764 0.500033 11.2633V12.4137C0.885226 12.4137 1.26155 12.5267 1.57559 12.7336C1.86303 12.924 2.13857 13.1254 2.40524 13.3378C3.12524 13.906 3.77419 14.546 4.34008 15.2495L4.67792 15.6688C4.84684 15.8785 5.11045 15.9999 5.38904 15.9999H9.38896V15.6827C9.38896 15.3461 9.30602 15.015 9.14305 14.7144C8.98299 14.4137 8.74912 14.1546 8.4646 13.9586Z" fill="#009CDE"/>
</svg>
