<svg width="17" height="16" viewBox="0 0 17 16" fill="none" xmlns="http://www.w3.org/2000/svg">
<path d="M15.9074 13.7051V11.8409C16.0808 11.7803 16.2309 11.6677 16.337 11.5189C16.4431 11.3702 16.5001 11.1923 16.5 11.0101C16.5 10.1537 16.1566 9.33228 15.5454 8.72664C14.9341 8.121 14.1052 7.78078 13.2407 7.78078H9.68517C9.55474 7.78078 9.42736 7.78078 9.29998 7.80136L9.35924 7.19364H9.38887C9.54601 7.19364 9.69681 7.13177 9.80792 7.02168C9.91903 6.91159 9.98147 6.76218 9.98147 6.60648V5.43217C9.98147 5.27647 9.91903 5.12705 9.80792 5.01696C9.69681 4.90687 9.54601 4.84501 9.38887 4.84501H9.37115C9.29893 4.27725 9.02009 3.75525 8.58689 3.37685C8.15369 2.99849 7.59601 2.78983 7.01852 2.78996H5.53703V1.6479C5.63068 1.56493 5.68452 1.44658 5.68518 1.32208C5.68518 1.07883 5.88412 0.881711 6.12962 0.881711C6.25529 0.881055 6.37473 0.827712 6.45846 0.734922H9.98152V0.147766H6.45846C6.37473 0.0549748 6.25529 0.00163082 6.12962 0.000976562C5.77617 0.00176295 5.43754 0.141213 5.1877 0.388801C4.93787 0.63639 4.7971 0.971898 4.79629 1.32208C4.79695 1.44658 4.85079 1.56494 4.94444 1.6479V2.78996H3.46295C2.88543 2.78983 2.32778 2.99848 1.89457 3.37685C1.46137 3.75522 1.18255 4.27725 1.11032 4.84501H1.09259C0.935452 4.84501 0.784655 4.90687 0.673545 5.01696C0.562436 5.12705 0.5 5.27647 0.5 5.43217V6.60648C0.5 6.76218 0.562436 6.91159 0.673545 7.02168C0.784655 7.13177 0.935452 7.19364 1.09259 7.19364H1.12222L2.01111 16.001H15.611C15.8467 16.001 16.0729 15.9082 16.2395 15.743C16.4062 15.5779 16.4999 15.3538 16.4999 15.1203V14.5331C16.4993 14.3514 16.442 14.1743 16.336 14.026C16.2299 13.8778 16.0801 13.7657 15.9073 13.7052L15.9074 13.7051ZM10.4349 13.6523L9.61716 14.1308L9.34163 13.6523L9.00684 13.0652H11.4365L10.4349 13.6523ZM8.65709 13.6523H7.61118V13.0652H8.32825L8.65709 13.6523ZM8.50008 10.1294C8.50008 10.0106 8.5723 9.90357 8.68301 9.85822C8.79373 9.81274 8.92111 9.83778 9.0059 9.92179C9.09069 10.0058 9.11595 10.132 9.07005 10.2417C9.02428 10.3514 8.91621 10.423 8.79637 10.423C8.63275 10.423 8.50008 10.2915 8.50008 10.1294ZM10.2779 10.1294C10.2779 10.0106 10.3501 9.90357 10.4608 9.85822C10.5715 9.81274 10.6989 9.83778 10.7837 9.92179C10.8685 10.0058 10.8937 10.132 10.8478 10.2417C10.8021 10.3514 10.694 10.423 10.5742 10.423C10.4105 10.423 10.2779 10.2915 10.2779 10.1294ZM11.1667 9.24865C11.1667 9.12991 11.239 9.02283 11.3497 8.97749C11.4604 8.93201 11.5878 8.95704 11.6726 9.04105C11.7574 9.12506 11.7826 9.25128 11.7367 9.36098C11.691 9.47067 11.5829 9.54223 11.463 9.54223C11.2994 9.54223 11.1667 9.41078 11.1667 9.24865ZM12.0556 10.1294C12.0556 10.0106 12.1279 9.90357 12.2386 9.85822C12.3493 9.81274 12.4767 9.83778 12.5615 9.92179C12.6463 10.0058 12.6715 10.132 12.6256 10.2417C12.5798 10.3514 12.4718 10.423 12.3519 10.423C12.1883 10.423 12.0556 10.2915 12.0556 10.1294ZM14.1297 10.423C14.0099 10.423 13.9018 10.3514 13.856 10.2417C13.8101 10.132 13.8354 10.0058 13.9202 9.92179C14.005 9.83777 14.1324 9.81274 14.2431 9.85822C14.3538 9.90357 14.426 10.0106 14.426 10.1294C14.426 10.2072 14.3948 10.2819 14.3392 10.337C14.2837 10.392 14.2083 10.423 14.1297 10.423ZM13.5371 9.24865C13.5371 9.3674 13.4649 9.47447 13.3542 9.51982C13.2435 9.5653 13.1161 9.54027 13.0313 9.45626C12.9465 9.37225 12.9213 9.24603 12.9672 9.13633C13.0129 9.02664 13.121 8.95508 13.2408 8.95508C13.3194 8.95508 13.3948 8.98601 13.4504 9.04105C13.5059 9.0961 13.5371 9.1708 13.5371 9.24865ZM9.98156 9.24865C9.98156 9.3674 9.90934 9.47447 9.79863 9.51982C9.68791 9.5653 9.56053 9.54027 9.47574 9.45626C9.39095 9.37225 9.36569 9.24603 9.41159 9.13633C9.45736 9.02664 9.56542 8.95508 9.68526 8.95508C9.76384 8.95508 9.83923 8.98601 9.89479 9.04105C9.95034 9.0961 9.98156 9.1708 9.98156 9.24865ZM15.3149 13.6523H11.5992L12.6006 13.0652H15.3148L15.3149 13.6523ZM13.6053 12.478H7.61125V11.8909H15.315V12.478H13.6053ZM1.71477 7.19361H8.76664L8.68966 7.93346C8.46426 8.00567 8.24853 8.10423 8.04668 8.22704L7.93107 8.29453C7.73265 8.42114 7.54801 8.5678 7.38002 8.73201C7.22963 8.88182 7.0947 9.04604 6.97699 9.22217C6.96813 9.23226 6.96019 9.24301 6.95331 9.25454H1.92236L1.71477 7.19361ZM2.5444 15.4138L2.36954 13.6523H7.01852V13.7023H7.00079C6.99392 13.7006 6.98677 13.7006 6.98003 13.7023C6.94934 13.7125 6.91958 13.7252 6.89114 13.7404L6.79034 13.805C6.71323 13.8619 6.64524 13.9302 6.58889 14.0075C6.56429 14.042 6.54259 14.0784 6.52368 14.1162C6.50066 14.1603 6.48174 14.2066 6.46746 14.2542C6.45542 14.2896 6.44643 14.3259 6.44074 14.3628C6.43029 14.4189 6.42526 14.4759 6.42592 14.5331V15.1202V15.2083V15.2964C6.43069 15.3255 6.43862 15.354 6.4496 15.3816V15.4138L2.5444 15.4138Z" fill="#009CDE"/>
</svg>
