<svg width="17" height="16" viewBox="0 0 17 16" fill="none" xmlns="http://www.w3.org/2000/svg">
<path d="M3.11631 14.9361H4.45014L4.02697 15.7158C3.97826 15.8064 4.00608 15.9216 4.08964 15.9744C4.11746 15.9914 4.1471 16.0008 4.17844 16.0008C4.23759 16.0008 4.29687 15.9669 4.3282 15.9084L4.85402 14.9362H12.7388L13.2647 15.9084C13.2977 15.9688 13.3552 16.0008 13.4144 16.0008C13.4441 16.0008 13.4754 15.9933 13.5032 15.9744C13.5868 15.9216 13.6129 15.8064 13.5659 15.7158L13.1427 14.9361H14.5219V14.5586H3.11613L3.11631 14.9361Z" fill="#009CDE"/>
<path d="M12.845 9.92709V9.17207H15.3776C15.4733 9.17207 15.5518 9.08714 15.5518 8.98324L15.5517 0.188825C15.5517 0.0850651 15.4733 0 15.3775 0H2.28665C2.19094 0 2.11247 0.0849303 2.11247 0.188825V6.2762H0.587091C0.538384 6.2762 0.5 6.31768 0.5 6.37061V7.7506C0.5 7.8034 0.538263 7.84501 0.587091 7.84501H1.14438V8.43017H0.780349V9.55902H1.6684V8.43017H1.31833V7.75059C1.31833 7.69779 1.28006 7.65618 1.23124 7.65618H0.673947L0.67419 6.46503H2.11259V8.9832C2.11259 9.08696 2.19094 9.17203 2.28678 9.17203H4.77234V9.92705H1.16591V14.9369H1.75793V14.5594H1.51415V10.3043H16.1516V14.5591H15.88V14.9366H16.5V9.92671L12.845 9.92709ZM2.46075 0.377516H15.2033V8.79608L2.46075 8.79621V0.377516ZM5.12222 9.92709V9.17207H5.60979V9.92709H5.12222ZM5.95803 9.92709V9.17207H11.6609V9.92709H5.95803ZM12.0092 9.92709V9.17207H12.4967V9.92709H12.0092Z" fill="#009CDE"/>
<path d="M15.647 10.6426H9.04738C8.95166 10.6426 8.87319 10.7275 8.87319 10.8314V14.0387C8.87319 14.1424 8.95154 14.2275 9.04738 14.2275H15.647C15.7427 14.2275 15.8212 14.1426 15.8212 14.0387L15.8211 10.8314C15.8211 10.7275 15.7446 10.6426 15.647 10.6426ZM10.2349 13.0853C10.2349 13.1381 10.1966 13.1797 10.1478 13.1797H9.79774C9.74904 13.1797 9.71065 13.1382 9.71065 13.0853V11.9886C9.71065 11.9358 9.74891 11.8942 9.79774 11.8942H10.1478C10.1965 11.8942 10.2349 11.9357 10.2349 11.9886V13.0853Z" fill="#009CDE"/>
<path d="M8.36307 14.2274C8.45879 14.2274 8.53726 14.1424 8.53726 14.0385V10.8314C8.53726 10.7276 8.45891 10.6426 8.36307 10.6426H2.01933C1.92362 10.6426 1.84515 10.7275 1.84515 10.8314V14.0387C1.84515 14.1424 1.92349 14.2275 2.01933 14.2275L8.36307 14.2274ZM7.16675 11.9886C7.16675 11.9358 7.20501 11.8942 7.25384 11.8942H7.60391C7.65262 11.8942 7.691 11.9357 7.691 11.9886V13.0853C7.691 13.1381 7.65274 13.1797 7.60391 13.1797H7.25384C7.20513 13.1797 7.16675 13.1383 7.16675 13.0853V11.9886Z" fill="#009CDE"/>
<path d="M1.93219 15.9817H2.94216V14.6621H1.93219V15.9817Z" fill="#009CDE"/>
<path d="M14.696 15.9738H15.706V14.6543H14.696V15.9738Z" fill="#009CDE"/>
<path d="M14.9447 8.43283V0.736991C14.9447 0.684189 14.9029 0.642578 14.8495 0.642578L2.82061 0.64271C2.76735 0.64271 2.72538 0.684189 2.72538 0.737122V8.43296C2.72538 8.48576 2.76722 8.52737 2.82061 8.52737H14.8475C14.9009 8.52724 14.9447 8.48379 14.9447 8.43283ZM3.49489 2.29449C3.46819 2.29449 3.44163 2.28316 3.4225 2.26236C3.38823 2.22272 3.39208 2.16426 3.43206 2.12831L4.31555 1.36197C4.35553 1.328 4.41451 1.33181 4.45076 1.37145C4.48503 1.41108 4.48118 1.46955 4.4412 1.5055L3.55771 2.27184C3.53872 2.28685 3.51587 2.29449 3.49489 2.29449ZM5.28475 1.85455L3.83769 3.10981C3.82055 3.12496 3.79771 3.13246 3.77486 3.13246C3.74817 3.13246 3.7216 3.12114 3.70248 3.10033C3.66821 3.0607 3.67206 3.00223 3.71204 2.96628L5.1591 1.71102C5.19908 1.67705 5.25806 1.68087 5.29431 1.7205C5.32858 1.76027 5.32473 1.82058 5.28475 1.85455Z" fill="#009CDE"/>
</svg>
