<svg width="16" height="16" viewBox="0 0 16 16" fill="none" xmlns="http://www.w3.org/2000/svg">
<path d="M6.77331 1.1881H3.80293V0.296297C3.80345 0.132805 3.93586 0.000528255 4.09922 0H6.47701C6.6405 0.000529102 6.77291 0.132805 6.77331 0.296297V1.1881ZM6.18072 0.592594H4.39552V1.1881H6.18072V0.592594ZM14.7229 6.40882L13.6295 15.7362H13.6296C13.6128 15.8864 13.4858 16 13.3348 16H2.66809C2.51703 16 2.39005 15.8864 2.37325 15.7362L1.33912 6.40746H1.33925C1.3296 6.32386 1.35605 6.24013 1.41213 6.1773C1.46822 6.11447 1.54838 6.07849 1.6325 6.07862H14.4281C14.5127 6.07836 14.5933 6.11434 14.6497 6.17743C14.706 6.24066 14.7328 6.32492 14.7228 6.40891L14.7229 6.40882ZM12.0311 8.16293C12.0311 7.9993 11.8984 7.86663 11.7348 7.86663C11.5712 7.86663 11.4385 7.9993 11.4385 8.16293V9.34361C11.4385 10.5717 10.7833 11.7063 9.71996 12.3202C8.65661 12.9342 7.34626 12.9342 6.28291 12.3202C5.21956 11.7063 4.56439 10.5716 4.56439 9.34361V8.16293C4.56439 7.9993 4.43172 7.86663 4.26809 7.86663C4.10447 7.86663 3.9718 7.9993 3.9718 8.16293V9.34361C3.9718 10.7833 4.7398 12.1136 5.98662 12.8335C7.23343 13.5533 8.76944 13.5533 10.0163 12.8335C11.2631 12.1136 12.0311 10.7833 12.0311 9.34361V8.16293ZM10.1704 2.85464V2.85319C10.1831 2.29869 10.0315 1.75293 9.73479 1.28427C9.67884 1.20081 9.61481 1.1229 9.54365 1.05173C9.44114 0.946041 9.32077 0.859269 9.1881 0.79538L9.1496 0.777655C9.12249 0.765751 9.09484 0.755301 9.06667 0.746571C9.03558 0.736253 9.0045 0.727259 8.97328 0.719851L8.92884 0.710988C8.92553 0.709666 8.92196 0.709137 8.91852 0.709533C8.89855 0.705036 8.87818 0.702126 8.8578 0.700671C8.82235 0.696438 8.78677 0.694454 8.75106 0.694719C8.00581 0.694719 7.41322 1.52289 7.33771 2.61919C7.30212 2.62514 7.26813 2.6311 7.234 2.63996V2.63983C7.17302 2.65292 7.1131 2.67078 7.05477 2.69327C6.71428 2.82091 6.43983 3.08096 6.29391 3.41403C6.14801 3.74723 6.14299 4.12514 6.28002 4.46204C6.04682 4.52527 5.83771 4.65635 5.67923 4.83862C5.52077 5.0209 5.41984 5.24616 5.38955 5.48584H9.03383C9.46636 4.57101 9.94707 3.68002 10.4739 2.81612C10.3715 2.81718 10.2695 2.83014 10.1702 2.85461L10.1704 2.85464ZM4.26948 5.30199C3.58058 3.74787 2.84435 2.99087 2.0798 3.03675L1.7716 0.752357L1.77173 0.752489C1.7626 0.673522 1.72226 0.601564 1.65956 0.552755C1.59686 0.503945 1.5171 0.482385 1.43839 0.492835C1.35969 0.503417 1.28839 0.545217 1.24078 0.608709C1.19316 0.672333 1.17305 0.752361 1.18509 0.830932L1.47398 2.97314L0.488782 2.14497V2.1451C0.428598 2.0943 0.350819 2.06957 0.272512 2.07632C0.194205 2.08293 0.121719 2.1205 0.0709254 2.18055C-0.0346308 2.30581 -0.0186241 2.49285 0.106508 2.59841L1.17172 3.49326C0.841297 3.85915 0.679936 4.46959 1.15095 5.48587H4.28733C4.30135 5.42423 4.29514 5.35981 4.26948 5.30214L4.26948 5.30199ZM6.77463 2.1672V2.16733C6.77344 2.15847 6.77291 2.14948 6.77318 2.14061V1.7836H3.80279V2.14061C3.80385 2.24855 3.74737 2.34894 3.65464 2.40437C3.57065 2.45582 3.48996 2.5127 3.41324 2.57474C3.33387 2.63744 3.25953 2.70635 3.19102 2.78056C3.77619 3.17912 4.31244 3.93612 4.81032 5.06059H4.81019C4.82527 5.09485 4.8381 5.13003 4.84868 5.16575C4.96389 4.74155 5.22923 4.37354 5.59538 4.1303C5.59089 4.0725 5.58798 4.01324 5.58798 3.95398C5.58943 3.57276 5.70253 3.20027 5.91351 2.88267C6.12435 2.56508 6.42381 2.31639 6.77463 2.16733L6.77463 2.1672ZM15.8904 0.922753V0.922885C15.7741 0.56655 15.5087 0.278313 15.163 0.133212C14.563 -0.124593 13.9468 0.00728406 13.3379 0.405832L14.4061 2.52725C14.4792 2.67381 14.4202 2.85185 14.2742 2.92581C14.2326 2.94605 14.187 2.95663 14.1408 2.9569C14.0288 2.95676 13.9263 2.8938 13.8756 2.79393L12.8579 0.771698C12.6141 0.988628 12.3859 1.22224 12.1748 1.47103L13.3318 3.76877H13.332C13.3673 3.83874 13.3735 3.91982 13.349 3.9943C13.3246 4.06877 13.2715 4.13041 13.2015 4.16573C13.1604 4.18715 13.1146 4.19827 13.0682 4.1984C12.956 4.19866 12.8534 4.13557 12.803 4.03544L11.7674 1.97907C11.5629 2.24864 11.3615 2.53753 11.1645 2.84124V2.84137C11.1689 2.84613 11.1723 2.85169 11.1748 2.85764L12.2608 5.01028V5.01015C12.3339 5.15671 12.2751 5.33475 12.1289 5.40871C12.0874 5.42895 12.0419 5.43966 11.9956 5.4398C11.8835 5.43966 11.7811 5.3767 11.7304 5.27683L10.7999 3.42946C10.4073 4.08582 10.0355 4.78647 9.69329 5.48583H14.8103C15.8399 3.33912 16.2028 1.80566 15.8903 0.92286L15.8904 0.922753Z" fill="#009CDE"/>
</svg>
