<svg width="17" height="16" viewBox="0 0 17 16" fill="none" xmlns="http://www.w3.org/2000/svg">
<path d="M15.2823 0C15.1776 0 15.0953 0.0822646 15.0953 0.186971C15.0953 3.79558 12.16 6.73101 8.55131 6.73101C4.94267 6.73101 2.00727 3.79561 2.00727 0.186971C2.00727 0.082268 1.92501 0 1.8203 0C1.7156 0 1.63333 0.0822646 1.63333 0.186971C1.63333 3.93746 4.63605 7.00383 8.36438 7.10093V8.63032C8.1475 8.70885 7.99043 8.91451 7.99043 9.15758C7.99043 9.46794 8.24096 9.71847 8.55132 9.71847C8.86169 9.71847 9.11222 9.46794 9.11222 9.15758C9.11222 8.91452 8.95517 8.70512 8.73827 8.63032V7.10093C12.4665 6.99996 15.4693 3.93742 15.4693 0.186971C15.4693 0.082268 15.387 0 15.2823 0Z" fill="#009CDE"/>
<path d="M8.3646 11.6779V10.2308L6.27428 11.4274L7.43723 12.2987L8.3646 11.6779Z" fill="#009CDE"/>
<path d="M6.12115 14.4517L7.24294 13.6103V12.6203L6.12115 11.779V14.4517Z" fill="#009CDE"/>
<path d="M6.27431 14.8031L8.36463 15.9997V14.5526L7.43727 13.9319L6.27431 14.8031Z" fill="#009CDE"/>
<path d="M8.55161 3.91883C9.51262 3.34296 10.0736 2.60257 10.0586 1.92201C10.0511 1.59669 9.90152 1.32744 9.65474 1.20033C9.37429 1.05823 9.01159 1.11432 8.66006 1.35738C8.59649 1.40226 8.51422 1.40226 8.45065 1.35738C8.22629 1.20407 7.99444 1.12554 7.78504 1.12554C7.66538 1.12554 7.5532 1.15172 7.45223 1.20407C7.20543 1.33121 7.05585 1.60045 7.04839 1.92576C7.0297 2.59886 7.59057 3.33923 8.55161 3.91883Z" fill="#009CDE"/>
<path d="M10.8289 11.4277L8.73859 10.2311V11.6782L9.66595 12.2989L10.8289 11.4277Z" fill="#009CDE"/>
<path d="M9.48633 12.628L8.55147 12.0035L7.61662 12.628V13.6031L8.55147 14.2276L9.48633 13.6031V12.628Z" fill="#009CDE"/>
<path d="M9.86035 13.6103L10.9821 14.4516V11.7788L9.86035 12.6201V13.6103Z" fill="#009CDE"/>
<path d="M8.73862 14.5529V16L10.8289 14.8034L9.66599 13.9321L8.73862 14.5529Z" fill="#009CDE"/>
<path d="M15.8983 8.1397C15.7479 8.15303 15.1461 8.27286 14.6538 7.38065C13.9428 6.07562 12.794 7.20755 14.5171 8.19297C14.5171 8.19297 14.5718 8.28618 14.5034 8.35278H14.4214L14.4351 8.56587C14.6675 8.60581 14.859 8.84552 14.9821 9.17844C14.8727 9.12517 14.7496 9.09855 14.6129 9.08522C14.5445 8.9654 14.4625 8.89879 14.3667 8.89879C14.271 8.89879 14.189 8.97868 14.1069 9.11188C13.9701 9.13849 13.847 9.19177 13.724 9.24504C13.8334 8.89879 14.0112 8.64581 14.2436 8.5792V8.31289C14.2436 8.31289 13.3137 7.94004 13.2864 7.26088C13.2317 6.08902 14.5855 5.99579 15.0095 7.16766C15.4198 8.29957 16.0761 7.99331 16.0761 7.99331C16.0761 7.99321 16.035 8.12637 15.8983 8.1397Z" fill="#009CDE"/>
<path d="M15.9804 10.6166C16.1034 10.6166 16.1992 10.7098 16.1992 10.8164C16.1992 10.9229 16.1035 11.0161 15.9804 11.0161C15.8573 11.0161 15.7615 10.9229 15.7615 10.8164C15.7615 10.7098 15.8572 10.6166 15.9804 10.6166Z" fill="#009CDE"/>
<path d="M15.4607 11.389C15.5701 11.389 15.6658 11.4689 15.6658 11.5754C15.6658 11.6819 15.5701 11.7618 15.4607 11.7618C15.3513 11.7618 15.2555 11.6819 15.2555 11.5754C15.2555 11.4689 15.3513 11.389 15.4607 11.389Z" fill="#009CDE"/>
<path d="M12.753 10.5633C12.876 10.5633 12.9718 10.6566 12.9718 10.7631C12.9718 10.8829 12.8761 10.9629 12.753 10.9629C12.6299 10.9629 12.5341 10.8696 12.5341 10.7631C12.5342 10.6566 12.6299 10.5633 12.753 10.5633Z" fill="#009CDE"/>
<path d="M13.341 11.7618C13.2316 11.7618 13.1359 11.6819 13.1359 11.5754C13.1359 11.4689 13.2316 11.389 13.341 11.389C13.4504 11.389 13.5462 11.4689 13.5462 11.5754C13.5462 11.6819 13.4504 11.7618 13.341 11.7618Z" fill="#009CDE"/>
<path d="M14.4077 11.7618C14.5991 11.7618 14.7496 11.9083 14.7496 12.0814C14.7496 12.2545 14.5991 12.401 14.4077 12.401C14.2162 12.401 14.0658 12.2545 14.0658 12.0814C14.0658 11.895 14.2162 11.7618 14.4077 11.7618Z" fill="#009CDE"/>
<path d="M12.753 10.2704C12.9171 10.2704 13.0538 10.337 13.1496 10.4435V10.3902C13.1496 9.72437 13.7239 9.1917 14.4214 9.1917C15.1188 9.1917 15.6932 9.72438 15.6932 10.3902C15.7752 10.3503 15.8709 10.3236 15.9804 10.3236C16.2675 10.3236 16.5 10.55 16.5 10.8164C16.5 11.0827 16.2675 11.3091 15.9804 11.3091C15.953 11.3091 15.912 11.3091 15.8846 11.2958C15.9393 11.3757 15.9804 11.4689 15.9804 11.5754C15.9804 11.8417 15.7479 12.0682 15.4607 12.0682C15.3103 12.0682 15.1872 12.0149 15.0778 11.9217C15.0915 11.9749 15.1051 12.0282 15.1051 12.0815C15.1051 12.441 14.7906 12.734 14.4077 12.734C14.0248 12.734 13.7102 12.441 13.7102 12.0815C13.7102 12.0149 13.7239 11.9617 13.7376 11.895C13.6418 12.0016 13.4914 12.0815 13.341 12.0815C13.0538 12.0815 12.8213 11.8684 12.8213 11.5888C12.8213 11.2958 13.1085 11.0694 13.382 11.096C13.341 11.0294 13.3 10.9629 13.259 10.8963C13.2043 11.1094 12.9991 11.2691 12.753 11.2691C12.4658 11.2691 12.2333 11.056 12.2333 10.7764C12.2333 10.4968 12.4658 10.2704 12.753 10.2704ZM15.5154 11.0294C15.5017 11.056 15.4881 11.0694 15.4744 11.096C15.5017 11.096 15.5291 11.096 15.5564 11.1094C15.5291 11.0694 15.5154 11.0427 15.5154 11.0294ZM15.9804 11.1493C16.1718 11.1493 16.3359 11.0028 16.3359 10.8164C16.3359 10.6299 16.1718 10.4835 15.9804 10.4835C15.7889 10.4835 15.6248 10.6299 15.6248 10.8164C15.6248 11.0028 15.7889 11.1493 15.9804 11.1493ZM15.4607 11.895C15.6522 11.895 15.8026 11.7485 15.8026 11.5754C15.8026 11.4023 15.6385 11.2558 15.4607 11.2558C15.283 11.2558 15.1325 11.4023 15.1325 11.5754C15.1325 11.7485 15.2693 11.895 15.4607 11.895ZM14.941 11.6553C14.9273 11.5887 14.9273 11.5488 14.941 11.4822C14.9 11.4955 14.859 11.5222 14.8043 11.5355C14.859 11.5754 14.9 11.6154 14.941 11.6553ZM14.4077 12.5209C14.6675 12.5209 14.8863 12.3211 14.8863 12.0682C14.8863 11.8285 14.6675 11.6154 14.4077 11.6154C14.1479 11.6154 13.9291 11.8152 13.9291 12.0682C13.9291 12.3211 14.1479 12.5209 14.4077 12.5209ZM14.0111 11.5355C13.9564 11.5222 13.9017 11.4955 13.847 11.4689C13.8607 11.5355 13.8607 11.6154 13.847 11.682C13.9018 11.6287 13.9564 11.5754 14.0111 11.5355ZM14.4214 11.2292C14.9 11.2292 15.2966 10.8563 15.2966 10.4035C15.2966 9.95079 14.9 9.57789 14.4214 9.57789C13.9428 9.57789 13.5462 9.95075 13.5462 10.4035C13.5462 10.8563 13.9428 11.2292 14.4214 11.2292ZM13.3411 11.2558C13.1496 11.2558 12.9992 11.4023 12.9992 11.5754C12.9992 11.7485 13.1496 11.895 13.3411 11.895C13.5325 11.895 13.6829 11.7485 13.6829 11.5754C13.6829 11.4023 13.5325 11.2558 13.3411 11.2558ZM12.753 11.1094C12.9582 11.1094 13.1086 10.9629 13.1086 10.7764C13.1086 10.59 12.9445 10.4435 12.753 10.4435C12.5616 10.4435 12.3974 10.59 12.3974 10.7764C12.3974 10.9495 12.5479 11.1094 12.753 11.1094Z" fill="#009CDE"/>
<path d="M14.4214 9.71107C14.8316 9.71107 15.1598 10.0174 15.1598 10.4035C15.1598 10.7897 14.8316 11.096 14.4214 11.096C14.0111 11.096 13.6829 10.7896 13.6829 10.4035C13.6829 10.0174 14.0111 9.71107 14.4214 9.71107Z" fill="#009CDE"/>
<path d="M1.1017 8.1397C1.25213 8.15303 1.85387 8.27286 2.34616 7.38065C3.05725 6.07562 4.206 7.20755 2.4829 8.19297C2.4829 8.19297 2.42819 8.28618 2.49659 8.35278H2.57862L2.56493 8.56587C2.33247 8.60581 2.14101 8.84552 2.01791 9.17844C2.12732 9.12517 2.25038 9.09855 2.38712 9.08522C2.45551 8.9654 2.53755 8.89879 2.63327 8.89879C2.729 8.89879 2.81104 8.97868 2.89312 9.11188C3.02986 9.13849 3.15296 9.19177 3.27601 9.24504C3.1666 8.89879 2.98883 8.64581 2.75636 8.5792V8.31289C2.75636 8.31289 3.68629 7.94004 3.71361 7.26088C3.76832 6.08902 2.41446 5.99579 1.99052 7.16766C1.58024 8.29957 0.923859 7.99331 0.923859 7.99331C0.923907 7.99321 0.964964 8.12637 1.1017 8.1397Z" fill="#009CDE"/>
<path d="M1.01965 10.6166C0.896596 10.6166 0.80082 10.7098 0.80082 10.8164C0.80082 10.9229 0.896545 11.0161 1.01965 11.0161C1.1427 11.0161 1.23848 10.9229 1.23848 10.8164C1.23848 10.7098 1.14275 10.6166 1.01965 10.6166Z" fill="#009CDE"/>
<path d="M1.53931 11.389C1.4299 11.389 1.33417 11.4689 1.33417 11.5754C1.33417 11.6819 1.42989 11.7618 1.53931 11.7618C1.64873 11.7618 1.74445 11.6819 1.74445 11.5754C1.74445 11.4689 1.64873 11.389 1.53931 11.389Z" fill="#009CDE"/>
<path d="M4.24702 10.5633C4.12397 10.5633 4.0282 10.6566 4.0282 10.7631C4.0282 10.8829 4.12392 10.9629 4.24702 10.9629C4.37008 10.9629 4.46585 10.8696 4.46585 10.7631C4.46581 10.6566 4.37008 10.5633 4.24702 10.5633Z" fill="#009CDE"/>
<path d="M3.65899 11.7618C3.7684 11.7618 3.86413 11.6819 3.86413 11.5754C3.86413 11.4689 3.7684 11.389 3.65899 11.389C3.54957 11.389 3.45384 11.4689 3.45384 11.5754C3.45384 11.6819 3.54957 11.7618 3.65899 11.7618Z" fill="#009CDE"/>
<path d="M2.59231 11.7618C2.40086 11.7618 2.25043 11.9083 2.25043 12.0814C2.25043 12.2545 2.40086 12.401 2.59231 12.401C2.78377 12.401 2.93419 12.2545 2.93419 12.0814C2.93419 11.895 2.78377 11.7618 2.59231 11.7618Z" fill="#009CDE"/>
<path d="M4.24702 10.2704C4.08291 10.2704 3.94616 10.337 3.85044 10.4435V10.3902C3.85044 9.72437 3.27609 9.1917 2.57864 9.1917C1.88118 9.1917 1.30683 9.72438 1.30683 10.3902C1.22479 10.3503 1.12906 10.3236 1.01965 10.3236C0.732468 10.3236 0.5 10.55 0.5 10.8164C0.5 11.0827 0.732468 11.3091 1.01965 11.3091C1.04698 11.3091 1.08805 11.3091 1.11537 11.2958C1.06067 11.3757 1.01965 11.4689 1.01965 11.5754C1.01965 11.8417 1.25212 12.0682 1.5393 12.0682C1.68973 12.0682 1.81278 12.0149 1.9222 11.9217C1.90851 11.9749 1.89487 12.0282 1.89487 12.0815C1.89487 12.441 2.20942 12.734 2.59232 12.734C2.97522 12.734 3.28977 12.441 3.28977 12.0815C3.28977 12.0149 3.27608 11.9617 3.26244 11.895C3.35817 12.0016 3.5086 12.0815 3.65903 12.0815C3.94621 12.0815 4.17868 11.8684 4.17868 11.5888C4.17868 11.2958 3.8915 11.0694 3.61796 11.096C3.65898 11.0294 3.7 10.9629 3.74102 10.8963C3.79573 11.1094 4.00086 11.2691 4.24702 11.2691C4.5342 11.2691 4.76667 11.056 4.76667 10.7764C4.76667 10.4968 4.53421 10.2704 4.24702 10.2704ZM1.48461 11.0294C1.4983 11.056 1.51194 11.0694 1.52563 11.096C1.4983 11.096 1.47092 11.096 1.44359 11.1094C1.47092 11.0694 1.48461 11.0427 1.48461 11.0294ZM1.01963 11.1493C0.828171 11.1493 0.664055 11.0028 0.664055 10.8164C0.664055 10.6299 0.828171 10.4835 1.01963 10.4835C1.21108 10.4835 1.3752 10.6299 1.3752 10.8164C1.3752 11.0028 1.21108 11.1493 1.01963 11.1493ZM1.53928 11.895C1.34782 11.895 1.19739 11.7485 1.19739 11.5754C1.19739 11.4023 1.36151 11.2558 1.53928 11.2558C1.71704 11.2558 1.86747 11.4023 1.86747 11.5754C1.86752 11.7485 1.73073 11.895 1.53928 11.895ZM2.05896 11.6553C2.07265 11.5887 2.07265 11.5488 2.05896 11.4822C2.09998 11.4955 2.141 11.5222 2.1957 11.5355C2.141 11.5754 2.09998 11.6154 2.05896 11.6553ZM2.5923 12.5209C2.33246 12.5209 2.11368 12.3211 2.11368 12.0682C2.11368 11.8285 2.3325 11.6154 2.5923 11.6154C2.85214 11.6154 3.07092 11.8152 3.07092 12.0682C3.07092 12.3211 2.85214 12.5209 2.5923 12.5209ZM2.98888 11.5355C3.04359 11.5222 3.0983 11.4955 3.153 11.4689C3.13931 11.5355 3.13931 11.6154 3.153 11.682C3.09824 11.6287 3.04359 11.5754 2.98888 11.5355ZM2.5786 11.2292C2.09998 11.2292 1.70338 10.8563 1.70338 10.4035C1.70338 9.95079 2.09996 9.57789 2.5786 9.57789C3.05724 9.57789 3.45382 9.95075 3.45382 10.4035C3.45382 10.8563 3.05724 11.2292 2.5786 11.2292ZM3.65895 11.2558C3.8504 11.2558 4.00083 11.4023 4.00083 11.5754C4.00083 11.7485 3.8504 11.895 3.65895 11.895C3.46749 11.895 3.31707 11.7485 3.31707 11.5754C3.31707 11.4023 3.46749 11.2558 3.65895 11.2558ZM4.24699 11.1094C4.04185 11.1094 3.89142 10.9629 3.89142 10.7764C3.89142 10.59 4.05553 10.4435 4.24699 10.4435C4.43844 10.4435 4.60256 10.59 4.60256 10.7764C4.60256 10.9495 4.45213 11.1094 4.24699 11.1094Z" fill="#009CDE"/>
<path d="M2.57864 9.71107C2.16835 9.71107 1.84017 10.0174 1.84017 10.4035C1.84017 10.7897 2.16836 11.096 2.57864 11.096C2.98892 11.096 3.3171 10.7896 3.3171 10.4035C3.3171 10.0174 2.98891 9.71107 2.57864 9.71107Z" fill="#009CDE"/>
</svg>
