<svg width="16" height="16" viewBox="0 0 16 16" fill="none" xmlns="http://www.w3.org/2000/svg">
<path d="M8.66848 5.46847C8.53748 5.74646 8.23485 5.91123 7.92141 5.88183C7.62157 5.85379 7.3679 5.63496 7.29239 5.35643C7.22759 5.11654 7.3031 4.85438 7.48236 4.68076C7.51629 4.64788 7.55384 4.61823 7.59487 4.59247C7.88748 4.40893 8.26672 4.44703 8.51679 4.68076C8.51651 4.68049 8.51693 4.68089 8.51679 4.68076C8.72553 4.88818 8.79406 5.20173 8.66848 5.46847Z" fill="#009CDE"/>
<path d="M6.24856 3.49166C6.29598 3.44631 6.34466 3.40216 6.39514 3.3599C6.42365 3.33602 6.45272 3.31295 6.4822 3.29014C6.48317 3.28947 6.51975 3.26223 6.49708 3.27887C6.47247 3.29671 6.5299 3.25593 6.53491 3.25244C6.64714 3.17462 6.76549 3.10512 6.88857 3.04448C6.91694 3.03052 6.94559 3.01697 6.97451 3.00396C6.98786 2.99792 7.06547 2.96492 7.01679 2.98464C7.08327 2.95767 7.15141 2.93379 7.21997 2.91232C7.34361 2.87355 7.47016 2.84336 7.59824 2.82162C7.62898 2.81639 7.65999 2.81156 7.69087 2.80754C7.62898 2.81572 7.7337 2.80391 7.74622 2.80271C7.81283 2.7968 7.87959 2.79331 7.94648 2.79211C8.00892 2.7909 8.07136 2.79184 8.13367 2.79466C8.16482 2.79613 8.19597 2.79801 8.22712 2.80043C8.24492 2.80177 8.26272 2.80338 8.28039 2.80512C8.28748 2.80579 8.35952 2.81357 8.32141 2.80915C8.2879 2.80526 8.33184 2.81062 8.3356 2.81116C8.35326 2.81384 8.37092 2.81639 8.38858 2.81934C8.41946 2.82444 8.45019 2.82994 8.48093 2.83611C8.54685 2.84913 8.61221 2.86442 8.67688 2.882C8.74182 2.89971 8.80608 2.9197 8.86963 2.94197C8.89939 2.95244 8.92874 2.96357 8.95822 2.97471C8.96684 2.97793 9.00926 2.99631 8.96364 2.97672C8.98019 2.98383 8.99688 2.99094 9.01329 2.99832C9.15501 3.06138 9.29102 3.13611 9.41965 3.22144C9.45039 3.24184 9.48057 3.2629 9.51047 3.28437C9.47306 3.25753 9.55052 3.31549 9.56192 3.32448C9.62784 3.37735 9.69084 3.43343 9.75175 3.49166C9.86384 3.59872 10.0528 3.59966 10.1648 3.49166C10.2763 3.38406 10.2773 3.20065 10.1648 3.09316C9.25208 2.22147 7.86972 1.99447 6.70461 2.50631C6.38168 2.64813 6.08741 2.8526 5.83556 3.09316C5.72347 3.20023 5.72444 3.38444 5.83556 3.49166C5.94793 3.60006 6.13604 3.59899 6.24856 3.49166Z" fill="#009CDE"/>
<path d="M4.61252 1.91274C4.70723 1.82191 4.80485 1.73416 4.90624 1.65044C4.95283 1.61207 4.99997 1.5745 5.04795 1.53774C5.0531 1.53385 5.09899 1.49923 5.07382 1.51802C5.05129 1.53479 5.08787 1.50782 5.08884 1.50715C5.11874 1.48555 5.14864 1.46408 5.17896 1.44302C5.38812 1.29758 5.60881 1.16744 5.83855 1.05435C5.89126 1.02845 5.94439 1.00336 5.99807 0.979214C6.02686 0.966199 6.05578 0.953588 6.08485 0.941109C6.09723 0.935743 6.10974 0.93051 6.12226 0.925278C6.16816 0.905958 6.05982 0.949428 6.14006 0.917898C6.25285 0.873488 6.36689 0.832433 6.48273 0.795538C6.7211 0.719734 6.96518 0.6611 7.21258 0.620045C7.24331 0.614947 7.27418 0.610117 7.3052 0.605555C7.32355 0.602872 7.38475 0.594419 7.33357 0.601128C7.39991 0.592541 7.46638 0.585564 7.533 0.579661C7.65719 0.568659 7.78193 0.562085 7.90668 0.559804C8.15631 0.555376 8.40607 0.568793 8.65361 0.599382C8.68824 0.603675 8.64707 0.598711 8.64234 0.59804C8.65555 0.599918 8.66891 0.601797 8.68212 0.603675C8.71299 0.608103 8.74387 0.612932 8.77474 0.617897C8.83649 0.627959 8.89796 0.639095 8.95915 0.651439C9.08195 0.675991 9.20391 0.704972 9.3245 0.738243C9.44563 0.771651 9.56537 0.809486 9.68358 0.851482C9.74296 0.872546 9.80179 0.894951 9.86034 0.918029C9.91082 0.937886 9.84087 0.908906 9.89066 0.930641C9.92375 0.944997 9.95699 0.959084 9.98995 0.973709C10.2522 1.09084 10.504 1.22997 10.7416 1.38869C10.7991 1.42706 10.8554 1.46691 10.9114 1.50716C10.9174 1.51145 10.955 1.53963 10.9191 1.51266C10.9338 1.52379 10.9486 1.53506 10.9633 1.54633C10.9926 1.56901 11.0218 1.59195 11.0508 1.6153C11.1676 1.70962 11.2797 1.80917 11.3877 1.91288C11.4995 2.02022 11.689 2.02075 11.8008 1.91288C11.9125 1.80515 11.913 1.62214 11.8008 1.51439C11.0231 0.76827 10.0135 0.251589 8.92995 0.0747714C7.84227 -0.102733 6.7307 0.0369349 5.72811 0.481714C5.16043 0.733545 4.64239 1.08976 4.19971 1.51439C4.0879 1.62172 4.08845 1.8054 4.19971 1.91288C4.31166 2.02102 4.50028 2.02034 4.61252 1.91274Z" fill="#009CDE"/>
<path d="M15.2673 4.68178H8.9892C9.17236 5.02566 9.16735 5.45284 8.92996 5.78342C8.66211 6.15626 8.18523 6.33796 7.72628 6.22901C7.26734 6.12006 6.93428 5.73084 6.88561 5.2822C6.86308 5.07411 6.90912 4.86468 7.00827 4.68192H0.733047C0.328073 4.68192 0 4.99856 0 5.38912V14.0641C0 14.4548 0.328066 14.7713 0.733047 14.7713H2.65264C2.49549 14.992 2.33862 15.2128 2.18163 15.4334C2.06592 15.5959 2.14449 15.8574 2.32125 15.9476C2.51929 16.0485 2.73068 15.9861 2.85418 15.8127C3.10103 15.4657 3.34773 15.1185 3.59488 14.7713H11.8588C12.1057 15.1184 12.3525 15.4655 12.5995 15.8127C12.7144 15.9744 12.9467 16.063 13.1322 15.9476C13.2991 15.8437 13.3952 15.6068 13.272 15.4334C13.1148 15.2127 12.9579 14.992 12.8009 14.7713H15.267C15.6719 14.7713 16 14.4548 16 14.0641V5.38912C16.0001 4.99843 15.6723 4.68178 15.2673 4.68178ZM9.74681 9.93205L7.12604 11.5419C6.95818 11.6451 6.73815 11.5286 6.73815 11.3367V8.11676C6.73815 7.92463 6.95816 7.80831 7.12604 7.91149L9.74681 9.52136C9.90257 9.61702 9.90257 9.83653 9.74681 9.93205Z" fill="#009CDE"/>
</svg>
