<svg width="17" height="16" viewBox="0 0 17 16" fill="none" xmlns="http://www.w3.org/2000/svg">
<path d="M7.81841 4.29689C7.84582 4.28669 7.87477 4.28069 7.9041 4.27916C8.02665 3.65047 7.60966 2.51059 6.51067 1.41383C5.96462 0.841641 5.29666 0.40012 4.5563 0.122125C4.23214 -0.00927646 3.87496 -0.0354301 3.53512 0.0474918L7.71633 4.2318C7.75114 4.25259 7.78614 4.27354 7.81841 4.29689Z" fill="#009CDE"/>
<path d="M7.97128 8.563L7.79849 11.4207H8.49834V11.9922H7.76395L7.70312 12.9998C7.95562 12.8984 8.22633 12.8498 8.49833 12.8569C8.77033 12.8498 9.04106 12.8984 9.29354 12.9998L9.16359 10.8489H8.49831V10.2774H9.12902L8.80077 4.84778H8.19582L8.00582 7.99124H8.4983V8.56277L7.97128 8.563Z" fill="#009CDE"/>
<path d="M7.3977 4.70434C7.09305 4.55405 6.75537 4.48299 6.41592 4.49805C5.59431 4.52229 4.78813 4.72832 4.05538 5.10136C2.65251 5.80429 1.823 6.88577 1.83335 7.57442L7.47445 4.75246C7.44983 4.73486 7.42422 4.71888 7.3977 4.70434Z" fill="#009CDE"/>
<path d="M9.61774 4.69399C9.58459 4.71172 9.55258 4.73162 9.52197 4.75344L15.1631 7.57513C15.1734 6.88648 14.3439 5.80503 12.9405 5.10185C11.5434 4.40428 10.2118 4.36903 9.61774 4.69399Z" fill="#009CDE"/>
<path d="M9.17841 4.29803C9.21641 4.26945 9.25811 4.24547 9.30007 4.22084L13.4682 0.0499301C12.8435 -0.153299 11.617 0.286837 10.4901 1.41421C9.392 2.51276 8.97616 3.65519 9.09959 4.28159C9.1265 4.28338 9.15303 4.28897 9.17841 4.29803Z" fill="#009CDE"/>
<path d="M14.7823 14.0003C14.3759 14.0134 13.9756 13.8995 13.6369 13.6744C13.3859 13.503 13.0864 13.4169 12.7828 13.4287C12.4253 13.4299 12.0738 13.5193 11.7591 13.6887C11.3693 13.8917 10.9369 13.9985 10.4976 14.0003C10.0912 14.0133 9.69091 13.8995 9.35222 13.6744C9.10126 13.503 8.80172 13.4169 8.49809 13.4287C8.19446 13.417 7.89503 13.5031 7.64396 13.6744C7.30526 13.8993 6.90496 14.0133 6.49856 14.0003C6.09216 14.0133 5.69187 13.8993 5.35317 13.6744C5.10209 13.5031 4.80268 13.417 4.49904 13.4287C4.14161 13.43 3.79002 13.5193 3.47532 13.6887C3.0856 13.8917 2.65318 13.9986 2.21388 14.0003C1.80747 14.0133 1.40718 13.8993 1.06848 13.6744C0.897351 13.5591 0.70351 13.4819 0.5 13.4481V16.0006H16.4962V13.4481C16.2926 13.4818 16.0987 13.559 15.9277 13.6744C15.589 13.8995 15.1887 14.0134 14.7823 14.0003ZM1.64258 15.1433H1.07129V14.5718H1.64258V15.1433ZM6.49856 15.1433C6.09216 15.1563 5.69187 15.0424 5.35317 14.8175C5.10209 14.6462 4.80268 14.5601 4.49904 14.5718C4.14161 14.5731 3.79002 14.6624 3.47532 14.8318C3.0856 15.0348 2.65318 15.1417 2.21388 15.1433V14.5718C2.57131 14.5705 2.9229 14.4812 3.2376 14.3118C3.62732 14.1088 4.05974 14.0019 4.49904 14.0003C4.90544 13.9872 5.30574 14.1012 5.64443 14.3261C5.89552 14.4974 6.19493 14.5835 6.49856 14.5718V15.1433ZM14.7823 15.1433C14.3759 15.1565 13.9756 15.0425 13.6369 14.8175C13.3859 14.646 13.0864 14.5599 12.7828 14.5718C12.4253 14.5729 12.0738 14.6624 11.7591 14.8318C11.3693 15.0348 10.9369 15.1415 10.4976 15.1433V14.5718C10.855 14.5706 11.2066 14.4812 11.5213 14.3118C11.911 14.1088 12.3435 14.002 12.7828 14.0003C13.1892 13.9871 13.5895 14.101 13.9282 14.3261C14.1791 14.4975 14.4787 14.5837 14.7823 14.5718V15.1433ZM15.9249 15.1433H15.3536V14.5718H15.9249V15.1433Z" fill="#009CDE"/>
<path d="M13.0608 10.0639C13.0306 10.1934 12.9153 10.2848 12.7826 10.2848H12.4969C12.3433 10.2777 12.1938 10.3356 12.085 10.4442C11.9764 10.553 11.9185 10.7024 11.9256 10.8561H16.496C16.5155 10.6994 16.4617 10.5424 16.35 10.4308C16.2384 10.3191 16.0814 10.2653 15.9247 10.2848H15.639C15.5142 10.2849 15.4038 10.204 15.3663 10.0849C15.2603 9.74208 15.0468 9.42787 14.2108 9.42787C13.7487 9.42787 13.1702 9.59443 13.0608 10.0639Z" fill="#009CDE"/>
<path d="M2.62649 10.5226C2.72252 10.5866 2.84749 10.5866 2.94351 10.5226L3.80045 9.95127C3.93166 9.86366 3.96712 9.68628 3.87964 9.55505C3.79203 9.42384 3.61465 9.38838 3.48342 9.47586L2.78498 9.94207L2.08653 9.47648C2.02354 9.4344 1.94639 9.4191 1.87204 9.43402C1.79783 9.44881 1.73241 9.49255 1.69033 9.55555C1.60285 9.68689 1.6383 9.86427 1.76952 9.95176L2.62649 10.5226Z" fill="#009CDE"/>
<path d="M5.76858 10.6184L5.07013 11.0846L4.37169 10.619C4.30869 10.5769 4.23154 10.5616 4.1572 10.5766C4.08298 10.5914 4.01756 10.6351 3.97548 10.6981C3.888 10.8294 3.92345 11.0068 4.05467 11.0943L4.91161 11.6656C5.00763 11.7296 5.1326 11.7296 5.22863 11.6656L6.08556 11.0943C6.21678 11.0068 6.25223 10.8294 6.16475 10.6981C6.07715 10.5669 5.89981 10.5308 5.76858 10.6184Z" fill="#009CDE"/>
</svg>
