<svg width="14" height="15" viewBox="0 0 14 15" fill="none" xmlns="http://www.w3.org/2000/svg">
<path d="M6.99998 7.50016C7.65925 7.50016 8.30372 7.30467 8.85188 6.9384C9.40004 6.57212 9.82728 6.05153 10.0796 5.44244C10.3319 4.83336 10.3979 4.16313 10.2693 3.51653C10.1406 2.86993 9.82318 2.27598 9.357 1.80981C8.89083 1.34363 8.29688 1.02616 7.65028 0.897547C7.00368 0.768929 6.33345 0.83494 5.72437 1.08723C5.11528 1.33952 4.59469 1.76677 4.22841 2.31493C3.86214 2.86309 3.66665 3.50756 3.66665 4.16683C3.66665 5.05089 4.01784 5.89873 4.64296 6.52385C5.26808 7.14897 6.11592 7.50016 6.99998 7.50016ZM6.99998 9.16683C4.77776 9.16683 0.333313 10.2779 0.333313 12.5002V14.1668H13.6666V12.5002C13.6666 10.2779 9.2222 9.16683 6.99998 9.16683Z"  fill="#009cde"/>
<defs>
<linearGradient id="paint0_linear" x1="-1.25" y1="15" x2="31.6694" y2="16.6287" gradientUnits="userSpaceOnUse">
<stop stop-color="#B8E6FA"/>
<stop offset="0.983871" stop-color="#009CDE"/>
</linearGradient>
</defs>
</svg>
